<svg xmlns="http://www.w3.org/2000/svg" xmlns:xlink="http://www.w3.org/1999/xlink" version="1.1" width="4008.19pt" height="5669.29pt" viewBox="0 0 4008.19 5669.29">
<defs>
<clipPath id="clip_0">
<path transform="matrix(1,0,0,-1,0,5669.29)" d="M0 5669.2917H4008.1893V0H0Z"/>
</clipPath>
<clipPath id="clip_1">
<path transform="matrix(1,0,0,-1,0,5669.29)" d="M0 5669.2917H4008.1893V0H0Z"/>
</clipPath>
<clipPath id="clip_2">
<path transform="matrix(1,0,0,-1,0,5669.29)" d="M0 5669.2917H4008.1893V0H0Z"/>
</clipPath>
<clipPath id="clip_3">
<path transform="matrix(1,0,0,-1,0,5669.29)" d="M0 5669.2917H4008.1893V0H0Z"/>
</clipPath>
<clipPath id="clip_4">
<path transform="matrix(1,0,0,-1,0,5669.29)" d="M0 5669.2917H4008.1893V0H0Z"/>
</clipPath>
<clipPath id="clip_5">
<path transform="matrix(1,0,0,-1,0,5669.29)" d="M0 5669.2917H4008.1893V0H0Z"/>
</clipPath>
<clipPath id="clip_6">
<path transform="matrix(1,0,0,-1,0,5669.29)" d="M0 5669.2917H4008.1893V0H0Z"/>
</clipPath>
<clipPath id="clip_7">
<path transform="matrix(1,0,0,-1,0,5669.29)" d="M0 5669.2917H4008.1893V0H0Z"/>
</clipPath>
<clipPath id="clip_8">
<path transform="matrix(1,0,0,-1,0,5669.29)" d="M0 5669.2917H4008.1893V0H0Z"/>
</clipPath>
<clipPath id="clip_9">
<path transform="matrix(1,0,0,-1,0,5669.29)" d="M0 5669.2917H4008.1893V0H0Z"/>
</clipPath>
</defs>
<g>
<g clip-path="url(#clip_0)">
<path transform="matrix(5.685374,0,0,-5.685374,0,32232.043)" d="M0 5669.2917H705V4672.12H0Z" fill="#ff5c5c"/>
</g>
<path transform="matrix(7.386716,0,0,1.394941,-4053.2728,-2196.2213)" d="M998.678 5601.2595H641.425C637.976 5601.2595 635.184 5598.4655 635.184 5595.017 635.184 5591.5695 637.976 5588.7756 641.425 5588.7756H998.678C1002.124 5588.7756 1004.916 5591.5695 1004.916 5595.017 1004.916 5598.4645 1002.124 5601.2595 998.678 5601.2595Z" fill="#ffffff"/>
<path transform="matrix(-.994536,-0,0,.994536,4008.3233,34.57959)" d="M10.596 5384.974C16.361 5411.2907 45.707 5416.6828 65.022 5417.304 85.208 5417.955 104.399 5424.3205 119.629 5436.338 174.174 5479.388 129.41 5544.7648 129.41 5544.7648 129.41 5544.7648 143.717 5459.1228 86.883 5444.934 86.883 5444.934 48.627 5433.4245 12.825 5465.7697 12.825 5465.7697 18.594 5441.0646 43.414 5433.7995 29.143 5429.9826 8.517 5420.348 10.596 5384.974Z" fill="#ffffff"/>
<g clip-path="url(#clip_1)">
<path transform="matrix(-.994536,-0,0,.994536,4008.3228,34.58252)" d="M329.462 5654.9875C302.559 5653.636 292.404 5625.5808 288.606 5606.6345 284.637 5586.829 275.198 5568.948 260.835 5555.908 209.383 5509.2019 152.279 5564.1286 152.279 5564.1286 152.279 5564.1286 234.393 5535.9045 257.751 5589.6247 257.751 5589.6247 275.409 5625.4606 249.407 5666.1027 249.407 5666.1027 272.824 5656.3435 275.899 5630.6628 282.016 5644.1115 294.916 5662.867 329.462 5654.9875Z" fill="#ffffff"/>
</g>
<path transform="matrix(-.994536,-0,0,.994536,4008.323,34.58008)" d="M151.396 5441.2009C173.194 5453.4406 170.589 5491.1437 165.209 5518.7185 164.545 5522.0427 163.844 5525.2058 163.171 5528.1345 165.898 5526.9455 168.902 5525.7326 172.009 5524.6047 198.321 5514.7517 235.142 5505.897 250.805 5525.378 255.48 5490.2067 222.712 5482.7995 178.953 5509.493 198.023 5461.894 185.318 5430.7956 151.396 5441.2009Z" fill="#ffffff"/>
<path transform="matrix(-.994536,-0,0,.994536,4008.3228,34.578126)" d="M287.265 5480.6437C265.467 5468.4055 268.07 5430.7019 273.45 5403.1257 274.114 5399.803 274.817 5396.638 275.49 5393.7116 272.762 5394.899 269.757 5396.1135 266.652 5397.2419 240.338 5407.0925 203.517 5415.9465 187.856 5396.4655 183.181 5431.637 215.949 5439.0466 259.706 5412.35 240.635 5459.951 253.343 5491.0505 287.265 5480.6437Z" fill="#ffffff"/>
<path transform="matrix(-.994536,-0,0,.994536,4008.3228,34.58008)" d="M218.446 5480.39C230.199 5470.8625 233.75 5447.576 233.75 5447.576 233.75 5447.576 211.366 5454.913 203.904 5468.077 198.345 5477.8854 209.687 5487.492 218.446 5480.39Z" fill="#ffffff"/>
<path transform="matrix(-.994536,-0,0,.994536,4008.3233,34.577638)" d="M143.045 5650.303C121.247 5638.0637 123.85 5600.3605 129.231 5572.7839 129.894 5569.4606 130.596 5566.2956 131.27 5563.367 128.542 5564.556 125.538 5565.7717 122.432 5566.899 96.118 5576.7526 59.297 5585.6047 43.636 5566.1257 38.961 5601.2956 71.728 5608.7048 115.486 5582.0085 96.417 5629.6096 109.123 5660.7087 143.045 5650.303Z" fill="#ffffff"/>
<path transform="matrix(-.994536,-0,0,.994536,4008.323,34.578615)" d="M67.085 5624.476C55.332 5634.0056 51.783 5657.2927 51.783 5657.2927 51.783 5657.2927 74.165 5649.953 81.627 5636.7907 87.188 5626.9826 75.845 5617.375 67.085 5624.476Z" fill="#ffffff"/>
<path transform="matrix(-.994536,-0,0,.994536,4008.323,34.57373)" d="M190.607 5218.6428C189.095 5221.438 187.053 5224.019 184.602 5226.2385 178.916 5231.39 171.087 5234.5466 163.341 5234.6276 156.272 5234.7028 147.462 5231.915 144.339 5225.9816 142.574 5222.6247 141.996 5217.4606 143.776 5213.7878 144.97 5211.3205 147.053 5209.2106 149.64 5207.855 154.496 5205.316 158.459 5207.3825 163.239 5206.356 179.675 5202.828 170.989 5191.5866 165.503 5188.6247 161.811 5186.6296 157.369 5186.1218 152.999 5186.2976 109.442 5188.058 122.432 5236.1896 131.894 5258.6638 141.546 5281.594 157.351 5302.5925 163.697 5326.7937 167 5339.3815 166.209 5356.493 155.61 5366.7155 154.436 5365.313 153.267 5363.9045 152.102 5362.497 151.442 5360.87 150.711 5359.2736 149.983 5357.6755 152.69 5349.094 152.139 5338.7727 151.42 5331.6535 149.582 5313.473 141.19 5296.914 133.264 5280.7658 126.483 5266.953 120.109 5253.075 116.225 5238.1618 112.882 5225.329 108.884 5209.7087 113.682 5196.2155 121.021 5175.5856 147.098 5163.4216 168.401 5170.407 188.892 5177.1228 201.254 5198.95 190.607 5218.6428Z" fill="#ffffff"/>
<path transform="matrix(-.994536,-0,0,.994536,4008.323,34.57715)" d="M129.116 5261.896C129.624 5263.0456 130.141 5264.1916 130.668 5265.327 130.144 5264.1877 129.628 5263.0417 129.116 5261.896Z" fill="#ffffff"/>
<g clip-path="url(#clip_2)">
<path transform="matrix(-.994536,-0,0,.994536,4008.323,34.578126)" d="M6.803 5385.519C3.295 5372.2678 5.425 5356.7639 15.624 5345.7116 25.822 5334.658 45.007 5330.073 56.916 5337.974 68.824 5345.874 67.277 5366.449 53.01 5372.493 45.141 5375.827 35.457 5374.6125 28.602 5379.5607 22.775 5383.7678 21.039 5391.438 23.083 5397.5285 25.125 5403.618 30.258 5408.303 35.948 5411.8806 79.039 5438.9645 138.028 5406.0476 147.074 5360.392 155.305 5318.839 125.76 5285.7849 95.549 5257.0236 79.6 5241.836 43.215 5234.5808 31.005 5261.0017 29.835 5263.538 28.136 5266.832 25.211 5266.6418 24.112 5266.5686 23.196 5265.959 22.391 5265.3225 16.212 5260.4255 13.272 5252.6706 13.483 5244.936 13.751 5235.032 18.578 5224.2478 26.317 5216.7019 29.744 5213.3605 41.88 5209.4245 43.529 5206.0017 45.362 5202.1906 36.454 5188.7727 34.707 5185.1628 18.04 5150.7116-5.103 5113.91 6.676 5073.2048 9.217 5064.4274 17.391 5068.7468 20.886 5073.6848 28.067 5083.837 39.184 5091.595 45.387 5102.2517 49.533 5100.618 53.159 5096.813 57.741 5095.0637 62.975 5093.0637 68.636 5092.2458 74.112 5092.5495 94.824 5093.7048 106.825 5108.0236 109.581 5123.534 110.058 5126.2209 106.634 5128.1325 103.956 5126.513 87.691 5116.6867 77.193 5138.428 76.476 5147.8845 75.647 5158.7897 77.083 5169.6667 78.837 5180.2966 82.319 5201.4006 92.897 5219.1525 106.142 5235.615 133.417 5262.0686 157.122 5292.7585 166.099 5328.7375 172.736 5355.334 167.871 5386.6535 146.146 5407.6945 137.798 5415.7775 127.406 5421.913 116.22 5426.0876 110.767 5428.1228 105.127 5429.6916 99.443 5430.7937 60.011 5438.438 15.918 5419.9445 6.803 5385.519Z" fill="#ffffff"/>
</g>
<path transform="matrix(-.994536,-0,0,.994536,4008.3223,34.580568)" d="M488.635 5479.849C485.839 5481.3615 483.26 5483.4035 481.039 5485.854 475.887 5491.5407 472.731 5499.367 472.65 5507.115 472.575 5514.1867 475.362 5522.996 481.296 5526.117 484.652 5527.8845 489.817 5528.4606 493.49 5526.6809 495.958 5525.4846 498.067 5523.4035 499.422 5520.816 501.963 5515.9606 499.895 5511.997 500.922 5507.2175 504.448 5490.7795 515.69 5499.469 518.6509 5504.953 520.647 5508.6447 521.154 5513.0886 520.978 5517.457 519.216 5561.014 471.087 5548.0227 448.614 5538.5627 425.683 5528.909 404.685 5513.1057 380.486 5506.7595 367.898 5503.456 350.785 5504.2478 340.562 5514.846 341.966 5516.0207 343.371 5517.1896 344.78 5518.354 346.407 5519.014 348.005 5519.7458 349.602 5520.473 358.185 5517.7697 368.507 5518.317 375.624 5519.036 393.804 5520.874 410.363 5529.2668 426.512 5537.1936 440.326 5543.974 454.202 5550.348 469.118 5554.2346 481.948 5557.575 497.569 5561.573 511.062 5556.7736 531.692 5549.436 543.856 5523.359 536.873 5502.056 530.155 5481.5646 508.326 5469.2028 488.635 5479.849Z" fill="#ffffff"/>
<path transform="matrix(-.994536,-0,0,.994536,4008.322,34.57959)" d="M445.381 5541.3405C444.233 5540.83 443.088 5540.316 441.95 5539.7888 443.092 5540.312 444.236 5540.828 445.381 5541.3405Z" fill="#ffffff"/>
<g clip-path="url(#clip_3)">
<path transform="matrix(-.994536,-0,0,.994536,4008.322,34.581056)" d="M321.758 5663.6535C335.01 5667.1618 350.514 5665.0295 361.566 5654.831 372.619 5644.6345 377.204 5625.448 369.303 5613.5407 361.405 5601.6315 340.83 5603.1774 334.786 5617.4445 331.45 5625.315 332.665 5634.997 327.717 5641.852 323.51 5647.679 315.841 5649.415 309.749 5647.371 303.659 5645.329 298.974 5640.1955 295.397 5634.5065 268.314 5591.416 301.23 5532.4255 346.887 5523.3806 388.438 5515.1506 421.493 5544.6965 450.256 5574.9055 465.443 5590.855 472.697 5627.2395 446.277 5639.448 443.74 5640.6208 440.446 5642.3215 440.639 5645.2458 440.711 5646.3425 441.32 5647.2585 441.956 5648.0637 446.853 5654.2409 454.608 5657.1828 462.342 5656.971 472.246 5656.7038 483.03 5651.876 490.578 5644.137 493.919 5640.7106 497.853 5628.574 501.276 5626.9274 505.087 5625.0925 518.506 5634.0007 522.113 5635.7468 556.562 5652.415 593.367 5675.557 634.073 5663.7775 642.8459 5661.2385 638.531 5653.0607 633.593 5649.5676 623.443 5642.386 615.682 5631.2697 605.026 5625.0686 606.6589 5620.9206 610.468 5617.2927 612.2141 5612.7136 614.21 5607.479 615.032 5601.818 614.728 5596.3425 613.573 5575.6306 599.254 5563.6286 583.747 5560.873 581.061 5560.396 579.145 5563.8205 580.768 5566.498 590.591 5582.7639 568.8489 5593.2619 559.397 5593.978 548.4921 5594.807 537.611 5593.373 526.981 5591.615 505.877 5588.1335 488.125 5577.557 471.662 5564.314 445.209 5537.037 414.521 5513.33 378.54 5504.355 351.943 5497.7219 320.624 5502.5837 299.585 5524.306 291.501 5532.6545 285.366 5543.0485 281.19 5554.2346 279.155 5559.6877 277.586 5565.329 276.484 5571.011 268.839 5610.4475 287.333 5654.5407 321.758 5663.6535Z" fill="#ffffff"/>
</g>
<path transform="matrix(-.994536,-0,0,.994536,4008.3226,34.578126)" d="M417.853 5495.996C413.775 5487.7517 406.944 5480.83 403.546 5472.3225 400.702 5473.0676 398.06 5475.4655 394.923 5476.2458 391.338 5477.139 387.549 5477.118 383.955 5476.2937 370.36 5473.1706 363.373 5461.334 362.566 5449.6408 362.426 5447.615 364.81 5446.5856 366.472 5448.0695 376.567 5457.0705 384.913 5442.2556 386.005 5435.387 387.262 5427.469 387.025 5419.3205 386.559 5411.317 385.638 5395.434 379.816 5381.2316 372.149 5367.6838 369.377 5363.865 366.691 5359.9606 364.109 5355.9885 364.724 5358.867 365.25 5361.7717 365.661 5364.7097 367.03 5374.5017 368.65 5386.414 364.602 5395.7985 358.413 5410.1467 340.407 5416.2175 326.802 5408.7487 313.715 5401.5617 306.98 5384.1726 315.291 5370.875 316.473 5368.9875 317.988 5367.315 319.749 5365.954 323.839 5362.7956 329.211 5361.336 334.332 5362.1276 339.001 5362.848 344.636 5365.8645 346.307 5370.5656 347.254 5373.2268 347.3 5377.0827 345.885 5379.5856 344.934 5381.2668 343.423 5382.5886 341.627 5383.2985 338.256 5384.6306 335.774 5382.6765 332.554 5382.9055 321.476 5383.6906 326.476 5392.9035 329.903 5395.6828 332.209 5397.5524 335.108 5398.414 338.003 5398.7639 366.867 5402.2546 361.433 5365.471 356.655 5347.9245 355.738 5344.557 354.672 5341.2165 353.529 5337.886 352.995 5336.849 352.474 5335.807 351.958 5334.7639 347.47 5333.2517 343.038 5331.537 338.673 5329.638 335.275 5328.7229 331.868 5327.8845 328.446 5327.1945 310.618 5323.6057 273.554 5320.6525 278.974 5349.2155 279.517 5352.0817 280.572 5354.914 282.592 5357.0915 285.595 5360.324 295.121 5364.6945 295.162 5353.5895 295.173 5350.3605 293.059 5348.015 294.162 5344.5627 294.751 5342.7229 295.967 5341.1257 297.582 5340.0656 299.983 5338.4855 303.835 5338.2736 306.552 5339.036 311.354 5340.39 314.74 5345.81 315.774 5350.4226 316.908 5355.475 315.813 5360.935 312.936 5365.2277 311.696 5367.077 310.131 5368.7009 308.325 5370.0056 295.618 5379.1926 277.813 5373.638 269.766 5361.0637 261.399 5347.99 266.248 5329.617 280.149 5322.4807 289.24 5317.813 301.235 5318.6276 311.097 5319.337 314.055 5319.5505 316.989 5319.8825 319.902 5320.3005 315.765 5317.992 311.69 5315.5725 307.694 5313.0646 293.66 5306.3215 279.101 5301.4665 263.19 5301.6115 255.176 5301.6848 247.03 5301.994 239.212 5303.7819 232.435 5305.33 218.212 5314.6525 227.872 5324.119 229.463 5325.6818 228.597 5328.1286 226.565 5328.1237 214.845 5328.1047 202.565 5321.9274 198.538 5308.5725 197.472 5305.0427 197.199 5301.2609 197.848 5297.6267 198.417 5294.4426 200.632 5291.6457 201.183 5288.7575 192.466 5285.937 185.104 5279.5876 176.603 5276.0715 172.467 5274.3615 168.062 5269.532 174.067 5266.872 201.907 5254.5466 232.281 5265.408 259.942 5272.319 262.841 5273.0446 273.987 5277.309 276.48 5275.678 278.722 5274.2145 279.722 5265.8625 281.628 5263.2497 285.934 5257.345 293.049 5252.9675 300.223 5251.6618 305.824 5250.6418 311.927 5251.6618 316.446 5255.1315 317.033 5255.5817 317.618 5256.1096 317.839 5256.815 318.43 5258.699 316.292 5260.1828 314.623 5261.2355 297.255 5272.2077 308.139 5295.0686 321.657 5303.7165 329.044 5308.4436 336.684 5313.0886 344.511 5317.0705 341.768 5309.1628 339.737 5301.034 338.649 5292.6926 336.003 5272.4274 341.258 5249.955 356.967 5236.888 363.005 5231.865 370.265 5228.499 377.922 5226.6638 381.654 5225.7668 385.48 5225.2346 389.303 5225.0485 415.827 5223.7629 443.723 5242.1906 447.491 5268.478 447.876 5271.1608 447.981 5273.916 447.799 5276.6467 448.43 5279.8605 448.792 5283.117 448.854 5286.374 448.925 5290.2019 448.65 5294.054 448.006 5297.837 446.687 5305.598 443.816 5313.0695 439.21 5319.428 427.226 5335.9816 405.157 5342.7316 384.761 5341.452 380.152 5341.1628 375.593 5340.5666 371.075 5339.7429 374.112 5344.2966 377.309 5348.7585 380.533 5353.1218 390.07 5366.0266 413.61 5375.352 423.392 5357.2868 424.331 5355.5524 425.667 5353.3205 427.584 5353.7829 428.305 5353.955 428.87 5354.5036 429.36 5355.059 433.117 5359.337 434.55 5365.355 433.908 5371.012 433.086 5378.2575 429.196 5385.6496 423.595 5390.345 421.116 5392.4226 412.849 5393.978 411.539 5396.313 410.081 5398.909 415.083 5409.7458 415.999 5412.5895 424.752 5439.7258 437.627 5469.2995 427.198 5497.9064 424.951 5504.078 419.836 5500.0095 417.853 5495.996ZM402.026 5238.868C395.881 5238.318 389.533 5238.1437 383.431 5239.1638 376.441 5240.33 369.702 5243.411 364.891 5248.7155 359.102 5255.098 355.536 5263.2995 353.272 5271.534 348.169 5290.0837 353.066 5307.81 361.877 5324.475 367.166 5326.2429 372.615 5327.5686 378.156 5328.2185 390.504 5329.6687 403.703 5327.6477 414.054 5320.4226 433.502 5306.847 445.97 5275.4206 431.392 5254.339 428.354 5249.9465 424.721 5245.8225 420.061 5243.2136 417.801 5241.951 415.377 5241.0817 412.869 5240.457 409.343 5239.5827 405.654 5239.1936 402.026 5238.868Z" fill="#ffffff"/>
<path transform="matrix(7.386716,0,0,1.394941,-4053.3824,-7719.6789)" d="M998.678 5601.2595H641.425C637.976 5601.2595 635.184 5598.4655 635.184 5595.017 635.184 5591.5695 637.976 5588.7756 641.425 5588.7756H998.678C1002.124 5588.7756 1004.916 5591.5695 1004.916 5595.017 1004.916 5598.4645 1002.124 5601.2595 998.678 5601.2595Z" fill="#ffffff"/>
<path transform="matrix(.849321,0,0,-12.08321,17.883698,61739.27)" d="M67.485 5057.6774C64.038 5057.6774 61.243 5054.8854 61.243 5051.435V4694.1828C61.243 4690.7375 64.037 4687.9406 67.485 4687.9406 70.933 4687.9406 73.729 4690.7375 73.729 4694.1828V5051.435C73.729 5054.8854 70.933 5057.6774 67.485 5057.6774Z" fill="#ffffff"/>
<path transform="matrix(.849321,0,0,-12.08321,3874.8006,61727.724)" d="M67.485 5057.6774C64.038 5057.6774 61.243 5054.8854 61.243 5051.435V4694.1828C61.243 4690.7375 64.037 4687.9406 67.485 4687.9406 70.933 4687.9406 73.729 4690.7375 73.729 4694.1828V5051.435C73.729 5054.8854 70.933 5057.6774 67.485 5057.6774Z" fill="#ffffff"/>
<path transform="matrix(-.994536,-0,0,-.994536,4008.104,5657.766)" d="M10.596 5384.974C16.361 5411.2907 45.707 5416.6828 65.022 5417.304 85.208 5417.955 104.399 5424.3205 119.629 5436.338 174.174 5479.388 129.41 5544.7648 129.41 5544.7648 129.41 5544.7648 143.717 5459.1228 86.883 5444.934 86.883 5444.934 48.627 5433.4245 12.825 5465.7697 12.825 5465.7697 18.594 5441.0646 43.414 5433.7995 29.143 5429.9826 8.517 5420.348 10.596 5384.974Z" fill="#ffffff"/>
<path transform="matrix(-.994536,-0,0,-.994536,4008.1036,5657.7639)" d="M329.462 5654.9875C302.559 5653.636 292.404 5625.5808 288.606 5606.6345 284.637 5586.829 275.198 5568.948 260.835 5555.908 209.383 5509.2019 152.279 5564.1286 152.279 5564.1286 152.279 5564.1286 234.393 5535.9045 257.751 5589.6247 257.751 5589.6247 275.409 5625.4606 249.407 5666.1027 249.407 5666.1027 272.824 5656.3435 275.899 5630.6628 282.016 5644.1115 294.916 5662.867 329.462 5654.9875Z" fill="#ffffff"/>
<path transform="matrix(-.994536,-0,0,-.994536,4008.1038,5657.7658)" d="M151.396 5441.2009C173.194 5453.4406 170.589 5491.1437 165.209 5518.7185 164.545 5522.0427 163.844 5525.2058 163.171 5528.1345 165.898 5526.9455 168.902 5525.7326 172.009 5524.6047 198.321 5514.7517 235.142 5505.897 250.805 5525.378 255.48 5490.2067 222.712 5482.7995 178.953 5509.493 198.023 5461.894 185.318 5430.7956 151.396 5441.2009Z" fill="#ffffff"/>
<path transform="matrix(-.994536,-0,0,-.994536,4008.1036,5657.7678)" d="M287.265 5480.6437C265.467 5468.4055 268.07 5430.7019 273.45 5403.1257 274.114 5399.803 274.817 5396.638 275.49 5393.7116 272.762 5394.899 269.757 5396.1135 266.652 5397.2419 240.338 5407.0925 203.517 5415.9465 187.856 5396.4655 183.181 5431.637 215.949 5439.0466 259.706 5412.35 240.635 5459.951 253.343 5491.0505 287.265 5480.6437Z" fill="#ffffff"/>
<path transform="matrix(-.994536,-0,0,-.994536,4008.1036,5657.7658)" d="M218.446 5480.39C230.199 5470.8625 233.75 5447.576 233.75 5447.576 233.75 5447.576 211.366 5454.913 203.904 5468.077 198.345 5477.8854 209.687 5487.492 218.446 5480.39Z" fill="#ffffff"/>
<path transform="matrix(-.994536,-0,0,-.994536,4008.104,5657.764)" d="M143.045 5650.303C121.247 5638.0637 123.85 5600.3605 129.231 5572.7839 129.894 5569.4606 130.596 5566.2956 131.27 5563.367 128.542 5564.556 125.538 5565.7717 122.432 5566.899 96.118 5576.7526 59.297 5585.6047 43.636 5566.1257 38.961 5601.2956 71.728 5608.7048 115.486 5582.0085 96.417 5629.6096 109.123 5660.7087 143.045 5650.303Z" fill="#ffffff"/>
<path transform="matrix(-.994536,-0,0,-.994536,4008.1038,5657.7678)" d="M67.085 5624.476C55.332 5634.0056 51.783 5657.2927 51.783 5657.2927 51.783 5657.2927 74.165 5649.953 81.627 5636.7907 87.188 5626.9826 75.845 5617.375 67.085 5624.476Z" fill="#ffffff"/>
<path transform="matrix(-.994536,-0,0,-.994536,4008.1038,5657.772)" d="M190.607 5218.6428C189.095 5221.438 187.053 5224.019 184.602 5226.2385 178.916 5231.39 171.087 5234.5466 163.341 5234.6276 156.272 5234.7028 147.462 5231.915 144.339 5225.9816 142.574 5222.6247 141.996 5217.4606 143.776 5213.7878 144.97 5211.3205 147.053 5209.2106 149.64 5207.855 154.496 5205.316 158.459 5207.3825 163.239 5206.356 179.675 5202.828 170.989 5191.5866 165.503 5188.6247 161.811 5186.6296 157.369 5186.1218 152.999 5186.2976 109.442 5188.058 122.432 5236.1896 131.894 5258.6638 141.546 5281.594 157.351 5302.5925 163.697 5326.7937 167 5339.3815 166.209 5356.493 155.61 5366.7155 154.436 5365.313 153.267 5363.9045 152.102 5362.497 151.442 5360.87 150.711 5359.2736 149.983 5357.6755 152.69 5349.094 152.139 5338.7727 151.42 5331.6535 149.582 5313.473 141.19 5296.914 133.264 5280.7658 126.483 5266.953 120.109 5253.075 116.225 5238.1618 112.882 5225.329 108.884 5209.7087 113.682 5196.2155 121.021 5175.5856 147.098 5163.4216 168.401 5170.407 188.892 5177.1228 201.254 5198.95 190.607 5218.6428Z" fill="#ffffff"/>
<path transform="matrix(-.994536,-0,0,-.994536,4008.1038,5657.7687)" d="M129.116 5261.896C129.624 5263.0456 130.141 5264.1916 130.668 5265.327 130.144 5264.1877 129.628 5263.0417 129.116 5261.896Z" fill="#ffffff"/>
<g clip-path="url(#clip_4)">
<path transform="matrix(-.994536,-0,0,-.994536,4008.1038,5657.7678)" d="M6.803 5385.519C3.295 5372.2678 5.425 5356.7639 15.624 5345.7116 25.822 5334.658 45.007 5330.073 56.916 5337.974 68.824 5345.874 67.277 5366.449 53.01 5372.493 45.141 5375.827 35.457 5374.6125 28.602 5379.5607 22.775 5383.7678 21.039 5391.438 23.083 5397.5285 25.125 5403.618 30.258 5408.303 35.948 5411.8806 79.039 5438.9645 138.028 5406.0476 147.074 5360.392 155.305 5318.839 125.76 5285.7849 95.549 5257.0236 79.6 5241.836 43.215 5234.5808 31.005 5261.0017 29.835 5263.538 28.136 5266.832 25.211 5266.6418 24.112 5266.5686 23.196 5265.959 22.391 5265.3225 16.212 5260.4255 13.272 5252.6706 13.483 5244.936 13.751 5235.032 18.578 5224.2478 26.317 5216.7019 29.744 5213.3605 41.88 5209.4245 43.529 5206.0017 45.362 5202.1906 36.454 5188.7727 34.707 5185.1628 18.04 5150.7116-5.103 5113.91 6.676 5073.2048 9.217 5064.4274 17.391 5068.7468 20.886 5073.6848 28.067 5083.837 39.184 5091.595 45.387 5102.2517 49.533 5100.618 53.159 5096.813 57.741 5095.0637 62.975 5093.0637 68.636 5092.2458 74.112 5092.5495 94.824 5093.7048 106.825 5108.0236 109.581 5123.534 110.058 5126.2209 106.634 5128.1325 103.956 5126.513 87.691 5116.6867 77.193 5138.428 76.476 5147.8845 75.647 5158.7897 77.083 5169.6667 78.837 5180.2966 82.319 5201.4006 92.897 5219.1525 106.142 5235.615 133.417 5262.0686 157.122 5292.7585 166.099 5328.7375 172.736 5355.334 167.871 5386.6535 146.146 5407.6945 137.798 5415.7775 127.406 5421.913 116.22 5426.0876 110.767 5428.1228 105.127 5429.6916 99.443 5430.7937 60.011 5438.438 15.918 5419.9445 6.803 5385.519Z" fill="#ffffff"/>
</g>
<path transform="matrix(-.994536,-0,0,-.994536,4008.103,5657.765)" d="M488.635 5479.849C485.839 5481.3615 483.26 5483.4035 481.039 5485.854 475.887 5491.5407 472.731 5499.367 472.65 5507.115 472.575 5514.1867 475.362 5522.996 481.296 5526.117 484.652 5527.8845 489.817 5528.4606 493.49 5526.6809 495.958 5525.4846 498.067 5523.4035 499.422 5520.816 501.963 5515.9606 499.895 5511.997 500.922 5507.2175 504.448 5490.7795 515.69 5499.469 518.6509 5504.953 520.647 5508.6447 521.154 5513.0886 520.978 5517.457 519.216 5561.014 471.087 5548.0227 448.614 5538.5627 425.683 5528.909 404.685 5513.1057 380.486 5506.7595 367.898 5503.456 350.785 5504.2478 340.562 5514.846 341.966 5516.0207 343.371 5517.1896 344.78 5518.354 346.407 5519.014 348.005 5519.7458 349.602 5520.473 358.185 5517.7697 368.507 5518.317 375.624 5519.036 393.804 5520.874 410.363 5529.2668 426.512 5537.1936 440.326 5543.974 454.202 5550.348 469.118 5554.2346 481.948 5557.575 497.569 5561.573 511.062 5556.7736 531.692 5549.436 543.856 5523.359 536.873 5502.056 530.155 5481.5646 508.326 5469.2028 488.635 5479.849Z" fill="#ffffff"/>
<path transform="matrix(-.994536,-0,0,-.994536,4008.1029,5657.7668)" d="M445.381 5541.3405C444.233 5540.83 443.088 5540.316 441.95 5539.7888 443.092 5540.312 444.236 5540.828 445.381 5541.3405Z" fill="#ffffff"/>
<path transform="matrix(-.994536,-0,0,-.994536,4008.1029,5657.7648)" d="M321.758 5663.6535C335.01 5667.1618 350.514 5665.0295 361.566 5654.831 372.619 5644.6345 377.204 5625.448 369.303 5613.5407 361.405 5601.6315 340.83 5603.1774 334.786 5617.4445 331.45 5625.315 332.665 5634.997 327.717 5641.852 323.51 5647.679 315.841 5649.415 309.749 5647.371 303.659 5645.329 298.974 5640.1955 295.397 5634.5065 268.314 5591.416 301.23 5532.4255 346.887 5523.3806 388.438 5515.1506 421.493 5544.6965 450.256 5574.9055 465.443 5590.855 472.697 5627.2395 446.277 5639.448 443.74 5640.6208 440.446 5642.3215 440.639 5645.2458 440.711 5646.3425 441.32 5647.2585 441.956 5648.0637 446.853 5654.2409 454.608 5657.1828 462.342 5656.971 472.246 5656.7038 483.03 5651.876 490.578 5644.137 493.919 5640.7106 497.853 5628.574 501.276 5626.9274 505.087 5625.0925 518.506 5634.0007 522.113 5635.7468 556.562 5652.415 593.367 5675.557 634.073 5663.7775 642.8459 5661.2385 638.531 5653.0607 633.593 5649.5676 623.443 5642.386 615.682 5631.2697 605.026 5625.0686 606.6589 5620.9206 610.468 5617.2927 612.2141 5612.7136 614.21 5607.479 615.032 5601.818 614.728 5596.3425 613.573 5575.6306 599.254 5563.6286 583.747 5560.873 581.061 5560.396 579.145 5563.8205 580.768 5566.498 590.591 5582.7639 568.8489 5593.2619 559.397 5593.978 548.4921 5594.807 537.611 5593.373 526.981 5591.615 505.877 5588.1335 488.125 5577.557 471.662 5564.314 445.209 5537.037 414.521 5513.33 378.54 5504.355 351.943 5497.7219 320.624 5502.5837 299.585 5524.306 291.501 5532.6545 285.366 5543.0485 281.19 5554.2346 279.155 5559.6877 277.586 5565.329 276.484 5571.011 268.839 5610.4475 287.333 5654.5407 321.758 5663.6535Z" fill="#ffffff"/>
<path transform="matrix(-.994536,-0,0,-.994536,4008.1033,5657.7678)" d="M417.853 5495.996C413.775 5487.7517 406.944 5480.83 403.546 5472.3225 400.702 5473.0676 398.06 5475.4655 394.923 5476.2458 391.338 5477.139 387.549 5477.118 383.955 5476.2937 370.36 5473.1706 363.373 5461.334 362.566 5449.6408 362.426 5447.615 364.81 5446.5856 366.472 5448.0695 376.567 5457.0705 384.913 5442.2556 386.005 5435.387 387.262 5427.469 387.025 5419.3205 386.559 5411.317 385.638 5395.434 379.816 5381.2316 372.149 5367.6838 369.377 5363.865 366.691 5359.9606 364.109 5355.9885 364.724 5358.867 365.25 5361.7717 365.661 5364.7097 367.03 5374.5017 368.65 5386.414 364.602 5395.7985 358.413 5410.1467 340.407 5416.2175 326.802 5408.7487 313.715 5401.5617 306.98 5384.1726 315.291 5370.875 316.473 5368.9875 317.988 5367.315 319.749 5365.954 323.839 5362.7956 329.211 5361.336 334.332 5362.1276 339.001 5362.848 344.636 5365.8645 346.307 5370.5656 347.254 5373.2268 347.3 5377.0827 345.885 5379.5856 344.934 5381.2668 343.423 5382.5886 341.627 5383.2985 338.256 5384.6306 335.774 5382.6765 332.554 5382.9055 321.476 5383.6906 326.476 5392.9035 329.903 5395.6828 332.209 5397.5524 335.108 5398.414 338.003 5398.7639 366.867 5402.2546 361.433 5365.471 356.655 5347.9245 355.738 5344.557 354.672 5341.2165 353.529 5337.886 352.995 5336.849 352.474 5335.807 351.958 5334.7639 347.47 5333.2517 343.038 5331.537 338.673 5329.638 335.275 5328.7229 331.868 5327.8845 328.446 5327.1945 310.618 5323.6057 273.554 5320.6525 278.974 5349.2155 279.517 5352.0817 280.572 5354.914 282.592 5357.0915 285.595 5360.324 295.121 5364.6945 295.162 5353.5895 295.173 5350.3605 293.059 5348.015 294.162 5344.5627 294.751 5342.7229 295.967 5341.1257 297.582 5340.0656 299.983 5338.4855 303.835 5338.2736 306.552 5339.036 311.354 5340.39 314.74 5345.81 315.774 5350.4226 316.908 5355.475 315.813 5360.935 312.936 5365.2277 311.696 5367.077 310.131 5368.7009 308.325 5370.0056 295.618 5379.1926 277.813 5373.638 269.766 5361.0637 261.399 5347.99 266.248 5329.617 280.149 5322.4807 289.24 5317.813 301.235 5318.6276 311.097 5319.337 314.055 5319.5505 316.989 5319.8825 319.902 5320.3005 315.765 5317.992 311.69 5315.5725 307.694 5313.0646 293.66 5306.3215 279.101 5301.4665 263.19 5301.6115 255.176 5301.6848 247.03 5301.994 239.212 5303.7819 232.435 5305.33 218.212 5314.6525 227.872 5324.119 229.463 5325.6818 228.597 5328.1286 226.565 5328.1237 214.845 5328.1047 202.565 5321.9274 198.538 5308.5725 197.472 5305.0427 197.199 5301.2609 197.848 5297.6267 198.417 5294.4426 200.632 5291.6457 201.183 5288.7575 192.466 5285.937 185.104 5279.5876 176.603 5276.0715 172.467 5274.3615 168.062 5269.532 174.067 5266.872 201.907 5254.5466 232.281 5265.408 259.942 5272.319 262.841 5273.0446 273.987 5277.309 276.48 5275.678 278.722 5274.2145 279.722 5265.8625 281.628 5263.2497 285.934 5257.345 293.049 5252.9675 300.223 5251.6618 305.824 5250.6418 311.927 5251.6618 316.446 5255.1315 317.033 5255.5817 317.618 5256.1096 317.839 5256.815 318.43 5258.699 316.292 5260.1828 314.623 5261.2355 297.255 5272.2077 308.139 5295.0686 321.657 5303.7165 329.044 5308.4436 336.684 5313.0886 344.511 5317.0705 341.768 5309.1628 339.737 5301.034 338.649 5292.6926 336.003 5272.4274 341.258 5249.955 356.967 5236.888 363.005 5231.865 370.265 5228.499 377.922 5226.6638 381.654 5225.7668 385.48 5225.2346 389.303 5225.0485 415.827 5223.7629 443.723 5242.1906 447.491 5268.478 447.876 5271.1608 447.981 5273.916 447.799 5276.6467 448.43 5279.8605 448.792 5283.117 448.854 5286.374 448.925 5290.2019 448.65 5294.054 448.006 5297.837 446.687 5305.598 443.816 5313.0695 439.21 5319.428 427.226 5335.9816 405.157 5342.7316 384.761 5341.452 380.152 5341.1628 375.593 5340.5666 371.075 5339.7429 374.112 5344.2966 377.309 5348.7585 380.533 5353.1218 390.07 5366.0266 413.61 5375.352 423.392 5357.2868 424.331 5355.5524 425.667 5353.3205 427.584 5353.7829 428.305 5353.955 428.87 5354.5036 429.36 5355.059 433.117 5359.337 434.55 5365.355 433.908 5371.012 433.086 5378.2575 429.196 5385.6496 423.595 5390.345 421.116 5392.4226 412.849 5393.978 411.539 5396.313 410.081 5398.909 415.083 5409.7458 415.999 5412.5895 424.752 5439.7258 437.627 5469.2995 427.198 5497.9064 424.951 5504.078 419.836 5500.0095 417.853 5495.996ZM402.026 5238.868C395.881 5238.318 389.533 5238.1437 383.431 5239.1638 376.441 5240.33 369.702 5243.411 364.891 5248.7155 359.102 5255.098 355.536 5263.2995 353.272 5271.534 348.169 5290.0837 353.066 5307.81 361.877 5324.475 367.166 5326.2429 372.615 5327.5686 378.156 5328.2185 390.504 5329.6687 403.703 5327.6477 414.054 5320.4226 433.502 5306.847 445.97 5275.4206 431.392 5254.339 428.354 5249.9465 424.721 5245.8225 420.061 5243.2136 417.801 5241.951 415.377 5241.0817 412.869 5240.457 409.343 5239.5827 405.654 5239.1936 402.026 5238.868Z" fill="#ffffff"/>
<path transform="matrix(.994536,0,0,.994536,2.12632,59.419435)" d="M10.596 5384.974C16.361 5411.2907 45.707 5416.6828 65.022 5417.304 85.208 5417.955 104.399 5424.3205 119.629 5436.338 174.174 5479.388 129.41 5544.7648 129.41 5544.7648 129.41 5544.7648 143.717 5459.1228 86.883 5444.934 86.883 5444.934 48.627 5433.4245 12.825 5465.7697 12.825 5465.7697 18.594 5441.0646 43.414 5433.7995 29.143 5429.9826 8.517 5420.348 10.596 5384.974Z" fill="#ffffff"/>
<g clip-path="url(#clip_5)">
<path transform="matrix(.994536,0,0,.994536,2.126785,59.422365)" d="M329.462 5654.9875C302.559 5653.636 292.404 5625.5808 288.606 5606.6345 284.637 5586.829 275.198 5568.948 260.835 5555.908 209.383 5509.2019 152.279 5564.1286 152.279 5564.1286 152.279 5564.1286 234.393 5535.9045 257.751 5589.6247 257.751 5589.6247 275.409 5625.4606 249.407 5666.1027 249.407 5666.1027 272.824 5656.3435 275.899 5630.6628 282.016 5644.1115 294.916 5662.867 329.462 5654.9875Z" fill="#ffffff"/>
</g>
<path transform="matrix(.994536,0,0,.994536,2.126678,59.41992)" d="M151.396 5441.2009C173.194 5453.4406 170.589 5491.1437 165.209 5518.7185 164.545 5522.0427 163.844 5525.2058 163.171 5528.1345 165.898 5526.9455 168.902 5525.7326 172.009 5524.6047 198.321 5514.7517 235.142 5505.897 250.805 5525.378 255.48 5490.2067 222.712 5482.7995 178.953 5509.493 198.023 5461.894 185.318 5430.7956 151.396 5441.2009Z" fill="#ffffff"/>
<path transform="matrix(.994536,0,0,.994536,2.126801,59.41797)" d="M287.265 5480.6437C265.467 5468.4055 268.07 5430.7019 273.45 5403.1257 274.114 5399.803 274.817 5396.638 275.49 5393.7116 272.762 5394.899 269.757 5396.1135 266.652 5397.2419 240.338 5407.0925 203.517 5415.9465 187.856 5396.4655 183.181 5431.637 215.949 5439.0466 259.706 5412.35 240.635 5459.951 253.343 5491.0505 287.265 5480.6437Z" fill="#ffffff"/>
<path transform="matrix(.994536,0,0,.994536,2.12674,59.41992)" d="M218.446 5480.39C230.199 5470.8625 233.75 5447.576 233.75 5447.576 233.75 5447.576 211.366 5454.913 203.904 5468.077 198.345 5477.8854 209.687 5487.492 218.446 5480.39Z" fill="#ffffff"/>
<g clip-path="url(#clip_6)">
<path transform="matrix(.994536,0,0,.994536,2.126366,59.41748)" d="M143.045 5650.303C121.247 5638.0637 123.85 5600.3605 129.231 5572.7839 129.894 5569.4606 130.596 5566.2956 131.27 5563.367 128.542 5564.556 125.538 5565.7717 122.432 5566.899 96.118 5576.7526 59.297 5585.6047 43.636 5566.1257 38.961 5601.2956 71.728 5608.7048 115.486 5582.0085 96.417 5629.6096 109.123 5660.7087 143.045 5650.303Z" fill="#ffffff"/>
</g>
<g clip-path="url(#clip_7)">
<path transform="matrix(.994536,0,0,.994536,2.126289,59.418458)" d="M67.085 5624.476C55.332 5634.0056 51.783 5657.2927 51.783 5657.2927 51.783 5657.2927 74.165 5649.953 81.627 5636.7907 87.188 5626.9826 75.845 5617.375 67.085 5624.476Z" fill="#ffffff"/>
</g>
<path transform="matrix(.994536,0,0,.994536,2.126526,59.413576)" d="M190.607 5218.6428C189.095 5221.438 187.053 5224.019 184.602 5226.2385 178.916 5231.39 171.087 5234.5466 163.341 5234.6276 156.272 5234.7028 147.462 5231.915 144.339 5225.9816 142.574 5222.6247 141.996 5217.4606 143.776 5213.7878 144.97 5211.3205 147.053 5209.2106 149.64 5207.855 154.496 5205.316 158.459 5207.3825 163.239 5206.356 179.675 5202.828 170.989 5191.5866 165.503 5188.6247 161.811 5186.6296 157.369 5186.1218 152.999 5186.2976 109.442 5188.058 122.432 5236.1896 131.894 5258.6638 141.546 5281.594 157.351 5302.5925 163.697 5326.7937 167 5339.3815 166.209 5356.493 155.61 5366.7155 154.436 5365.313 153.267 5363.9045 152.102 5362.497 151.442 5360.87 150.711 5359.2736 149.983 5357.6755 152.69 5349.094 152.139 5338.7727 151.42 5331.6535 149.582 5313.473 141.19 5296.914 133.264 5280.7658 126.483 5266.953 120.109 5253.075 116.225 5238.1618 112.882 5225.329 108.884 5209.7087 113.682 5196.2155 121.021 5175.5856 147.098 5163.4216 168.401 5170.407 188.892 5177.1228 201.254 5198.95 190.607 5218.6428Z" fill="#ffffff"/>
<path transform="matrix(.994536,0,0,.994536,2.12648,59.416994)" d="M129.116 5261.896C129.624 5263.0456 130.141 5264.1916 130.668 5265.327 130.144 5264.1877 129.628 5263.0417 129.116 5261.896Z" fill="#ffffff"/>
<g clip-path="url(#clip_8)">
<path transform="matrix(.994536,0,0,.994536,2.126358,59.41797)" d="M6.803 5385.519C3.295 5372.2678 5.425 5356.7639 15.624 5345.7116 25.822 5334.658 45.007 5330.073 56.916 5337.974 68.824 5345.874 67.277 5366.449 53.01 5372.493 45.141 5375.827 35.457 5374.6125 28.602 5379.5607 22.775 5383.7678 21.039 5391.438 23.083 5397.5285 25.125 5403.618 30.258 5408.303 35.948 5411.8806 79.039 5438.9645 138.028 5406.0476 147.074 5360.392 155.305 5318.839 125.76 5285.7849 95.549 5257.0236 79.6 5241.836 43.215 5234.5808 31.005 5261.0017 29.835 5263.538 28.136 5266.832 25.211 5266.6418 24.112 5266.5686 23.196 5265.959 22.391 5265.3225 16.212 5260.4255 13.272 5252.6706 13.483 5244.936 13.751 5235.032 18.578 5224.2478 26.317 5216.7019 29.744 5213.3605 41.88 5209.4245 43.529 5206.0017 45.362 5202.1906 36.454 5188.7727 34.707 5185.1628 18.04 5150.7116-5.103 5113.91 6.676 5073.2048 9.217 5064.4274 17.391 5068.7468 20.886 5073.6848 28.067 5083.837 39.184 5091.595 45.387 5102.2517 49.533 5100.618 53.159 5096.813 57.741 5095.0637 62.975 5093.0637 68.636 5092.2458 74.112 5092.5495 94.824 5093.7048 106.825 5108.0236 109.581 5123.534 110.058 5126.2209 106.634 5128.1325 103.956 5126.513 87.691 5116.6867 77.193 5138.428 76.476 5147.8845 75.647 5158.7897 77.083 5169.6667 78.837 5180.2966 82.319 5201.4006 92.897 5219.1525 106.142 5235.615 133.417 5262.0686 157.122 5292.7585 166.099 5328.7375 172.736 5355.334 167.871 5386.6535 146.146 5407.6945 137.798 5415.7775 127.406 5421.913 116.22 5426.0876 110.767 5428.1228 105.127 5429.6916 99.443 5430.7937 60.011 5438.438 15.918 5419.9445 6.803 5385.519Z" fill="#ffffff"/>
</g>
<path transform="matrix(.994536,0,0,.994536,2.12735,59.42041)" d="M488.635 5479.849C485.839 5481.3615 483.26 5483.4035 481.039 5485.854 475.887 5491.5407 472.731 5499.367 472.65 5507.115 472.575 5514.1867 475.362 5522.996 481.296 5526.117 484.652 5527.8845 489.817 5528.4606 493.49 5526.6809 495.958 5525.4846 498.067 5523.4035 499.422 5520.816 501.963 5515.9606 499.895 5511.997 500.922 5507.2175 504.448 5490.7795 515.69 5499.469 518.6509 5504.953 520.647 5508.6447 521.154 5513.0886 520.978 5517.457 519.216 5561.014 471.087 5548.0227 448.614 5538.5627 425.683 5528.909 404.685 5513.1057 380.486 5506.7595 367.898 5503.456 350.785 5504.2478 340.562 5514.846 341.966 5516.0207 343.371 5517.1896 344.78 5518.354 346.407 5519.014 348.005 5519.7458 349.602 5520.473 358.185 5517.7697 368.507 5518.317 375.624 5519.036 393.804 5520.874 410.363 5529.2668 426.512 5537.1936 440.326 5543.974 454.202 5550.348 469.118 5554.2346 481.948 5557.575 497.569 5561.573 511.062 5556.7736 531.692 5549.436 543.856 5523.359 536.873 5502.056 530.155 5481.5646 508.326 5469.2028 488.635 5479.849Z" fill="#ffffff"/>
<path transform="matrix(.994536,0,0,.994536,2.127411,59.419435)" d="M445.381 5541.3405C444.233 5540.83 443.088 5540.316 441.95 5539.7888 443.092 5540.312 444.236 5540.828 445.381 5541.3405Z" fill="#ffffff"/>
<g clip-path="url(#clip_9)">
<path transform="matrix(.994536,0,0,.994536,2.127441,59.4209)" d="M321.758 5663.6535C335.01 5667.1618 350.514 5665.0295 361.566 5654.831 372.619 5644.6345 377.204 5625.448 369.303 5613.5407 361.405 5601.6315 340.83 5603.1774 334.786 5617.4445 331.45 5625.315 332.665 5634.997 327.717 5641.852 323.51 5647.679 315.841 5649.415 309.749 5647.371 303.659 5645.329 298.974 5640.1955 295.397 5634.5065 268.314 5591.416 301.23 5532.4255 346.887 5523.3806 388.438 5515.1506 421.493 5544.6965 450.256 5574.9055 465.443 5590.855 472.697 5627.2395 446.277 5639.448 443.74 5640.6208 440.446 5642.3215 440.639 5645.2458 440.711 5646.3425 441.32 5647.2585 441.956 5648.0637 446.853 5654.2409 454.608 5657.1828 462.342 5656.971 472.246 5656.7038 483.03 5651.876 490.578 5644.137 493.919 5640.7106 497.853 5628.574 501.276 5626.9274 505.087 5625.0925 518.506 5634.0007 522.113 5635.7468 556.562 5652.415 593.367 5675.557 634.073 5663.7775 642.8459 5661.2385 638.531 5653.0607 633.593 5649.5676 623.443 5642.386 615.682 5631.2697 605.026 5625.0686 606.6589 5620.9206 610.468 5617.2927 612.2141 5612.7136 614.21 5607.479 615.032 5601.818 614.728 5596.3425 613.573 5575.6306 599.254 5563.6286 583.747 5560.873 581.061 5560.396 579.145 5563.8205 580.768 5566.498 590.591 5582.7639 568.8489 5593.2619 559.397 5593.978 548.4921 5594.807 537.611 5593.373 526.981 5591.615 505.877 5588.1335 488.125 5577.557 471.662 5564.314 445.209 5537.037 414.521 5513.33 378.54 5504.355 351.943 5497.7219 320.624 5502.5837 299.585 5524.306 291.501 5532.6545 285.366 5543.0485 281.19 5554.2346 279.155 5559.6877 277.586 5565.329 276.484 5571.011 268.839 5610.4475 287.333 5654.5407 321.758 5663.6535Z" fill="#ffffff"/>
</g>
<path transform="matrix(.994536,0,0,.994536,2.127045,59.41797)" d="M417.853 5495.996C413.775 5487.7517 406.944 5480.83 403.546 5472.3225 400.702 5473.0676 398.06 5475.4655 394.923 5476.2458 391.338 5477.139 387.549 5477.118 383.955 5476.2937 370.36 5473.1706 363.373 5461.334 362.566 5449.6408 362.426 5447.615 364.81 5446.5856 366.472 5448.0695 376.567 5457.0705 384.913 5442.2556 386.005 5435.387 387.262 5427.469 387.025 5419.3205 386.559 5411.317 385.638 5395.434 379.816 5381.2316 372.149 5367.6838 369.377 5363.865 366.691 5359.9606 364.109 5355.9885 364.724 5358.867 365.25 5361.7717 365.661 5364.7097 367.03 5374.5017 368.65 5386.414 364.602 5395.7985 358.413 5410.1467 340.407 5416.2175 326.802 5408.7487 313.715 5401.5617 306.98 5384.1726 315.291 5370.875 316.473 5368.9875 317.988 5367.315 319.749 5365.954 323.839 5362.7956 329.211 5361.336 334.332 5362.1276 339.001 5362.848 344.636 5365.8645 346.307 5370.5656 347.254 5373.2268 347.3 5377.0827 345.885 5379.5856 344.934 5381.2668 343.423 5382.5886 341.627 5383.2985 338.256 5384.6306 335.774 5382.6765 332.554 5382.9055 321.476 5383.6906 326.476 5392.9035 329.903 5395.6828 332.209 5397.5524 335.108 5398.414 338.003 5398.7639 366.867 5402.2546 361.433 5365.471 356.655 5347.9245 355.738 5344.557 354.672 5341.2165 353.529 5337.886 352.995 5336.849 352.474 5335.807 351.958 5334.7639 347.47 5333.2517 343.038 5331.537 338.673 5329.638 335.275 5328.7229 331.868 5327.8845 328.446 5327.1945 310.618 5323.6057 273.554 5320.6525 278.974 5349.2155 279.517 5352.0817 280.572 5354.914 282.592 5357.0915 285.595 5360.324 295.121 5364.6945 295.162 5353.5895 295.173 5350.3605 293.059 5348.015 294.162 5344.5627 294.751 5342.7229 295.967 5341.1257 297.582 5340.0656 299.983 5338.4855 303.835 5338.2736 306.552 5339.036 311.354 5340.39 314.74 5345.81 315.774 5350.4226 316.908 5355.475 315.813 5360.935 312.936 5365.2277 311.696 5367.077 310.131 5368.7009 308.325 5370.0056 295.618 5379.1926 277.813 5373.638 269.766 5361.0637 261.399 5347.99 266.248 5329.617 280.149 5322.4807 289.24 5317.813 301.235 5318.6276 311.097 5319.337 314.055 5319.5505 316.989 5319.8825 319.902 5320.3005 315.765 5317.992 311.69 5315.5725 307.694 5313.0646 293.66 5306.3215 279.101 5301.4665 263.19 5301.6115 255.176 5301.6848 247.03 5301.994 239.212 5303.7819 232.435 5305.33 218.212 5314.6525 227.872 5324.119 229.463 5325.6818 228.597 5328.1286 226.565 5328.1237 214.845 5328.1047 202.565 5321.9274 198.538 5308.5725 197.472 5305.0427 197.199 5301.2609 197.848 5297.6267 198.417 5294.4426 200.632 5291.6457 201.183 5288.7575 192.466 5285.937 185.104 5279.5876 176.603 5276.0715 172.467 5274.3615 168.062 5269.532 174.067 5266.872 201.907 5254.5466 232.281 5265.408 259.942 5272.319 262.841 5273.0446 273.987 5277.309 276.48 5275.678 278.722 5274.2145 279.722 5265.8625 281.628 5263.2497 285.934 5257.345 293.049 5252.9675 300.223 5251.6618 305.824 5250.6418 311.927 5251.6618 316.446 5255.1315 317.033 5255.5817 317.618 5256.1096 317.839 5256.815 318.43 5258.699 316.292 5260.1828 314.623 5261.2355 297.255 5272.2077 308.139 5295.0686 321.657 5303.7165 329.044 5308.4436 336.684 5313.0886 344.511 5317.0705 341.768 5309.1628 339.737 5301.034 338.649 5292.6926 336.003 5272.4274 341.258 5249.955 356.967 5236.888 363.005 5231.865 370.265 5228.499 377.922 5226.6638 381.654 5225.7668 385.48 5225.2346 389.303 5225.0485 415.827 5223.7629 443.723 5242.1906 447.491 5268.478 447.876 5271.1608 447.981 5273.916 447.799 5276.6467 448.43 5279.8605 448.792 5283.117 448.854 5286.374 448.925 5290.2019 448.65 5294.054 448.006 5297.837 446.687 5305.598 443.816 5313.0695 439.21 5319.428 427.226 5335.9816 405.157 5342.7316 384.761 5341.452 380.152 5341.1628 375.593 5340.5666 371.075 5339.7429 374.112 5344.2966 377.309 5348.7585 380.533 5353.1218 390.07 5366.0266 413.61 5375.352 423.392 5357.2868 424.331 5355.5524 425.667 5353.3205 427.584 5353.7829 428.305 5353.955 428.87 5354.5036 429.36 5355.059 433.117 5359.337 434.55 5365.355 433.908 5371.012 433.086 5378.2575 429.196 5385.6496 423.595 5390.345 421.116 5392.4226 412.849 5393.978 411.539 5396.313 410.081 5398.909 415.083 5409.7458 415.999 5412.5895 424.752 5439.7258 437.627 5469.2995 427.198 5497.9064 424.951 5504.078 419.836 5500.0095 417.853 5495.996ZM402.026 5238.868C395.881 5238.318 389.533 5238.1437 383.431 5239.1638 376.441 5240.33 369.702 5243.411 364.891 5248.7155 359.102 5255.098 355.536 5263.2995 353.272 5271.534 348.169 5290.0837 353.066 5307.81 361.877 5324.475 367.166 5326.2429 372.615 5327.5686 378.156 5328.2185 390.504 5329.6687 403.703 5327.6477 414.054 5320.4226 433.502 5306.847 445.97 5275.4206 431.392 5254.339 428.354 5249.9465 424.721 5245.8225 420.061 5243.2136 417.801 5241.951 415.377 5241.0817 412.869 5240.457 409.343 5239.5827 405.654 5239.1936 402.026 5238.868Z" fill="#ffffff"/>
<path transform="matrix(.994536,0,0,-.994536,9.063026,5650.817)" d="M10.596 5384.974C16.361 5411.2907 45.707 5416.6828 65.022 5417.304 85.208 5417.955 104.399 5424.3205 119.629 5436.338 174.174 5479.388 129.41 5544.7648 129.41 5544.7648 129.41 5544.7648 143.717 5459.1228 86.883 5444.934 86.883 5444.934 48.627 5433.4245 12.825 5465.7697 12.825 5465.7697 18.594 5441.0646 43.414 5433.7995 29.143 5429.9826 8.517 5420.348 10.596 5384.974Z" fill="#ffffff"/>
<path transform="matrix(.994536,0,0,-.994536,9.063492,5650.814)" d="M329.462 5654.9875C302.559 5653.636 292.404 5625.5808 288.606 5606.6345 284.637 5586.829 275.198 5568.948 260.835 5555.908 209.383 5509.2019 152.279 5564.1286 152.279 5564.1286 152.279 5564.1286 234.393 5535.9045 257.751 5589.6247 257.751 5589.6247 275.409 5625.4606 249.407 5666.1027 249.407 5666.1027 272.824 5656.3435 275.899 5630.6628 282.016 5644.1115 294.916 5662.867 329.462 5654.9875Z" fill="#ffffff"/>
<path transform="matrix(.994536,0,0,-.994536,9.063385,5650.8166)" d="M151.396 5441.2009C173.194 5453.4406 170.589 5491.1437 165.209 5518.7185 164.545 5522.0427 163.844 5525.2058 163.171 5528.1345 165.898 5526.9455 168.902 5525.7326 172.009 5524.6047 198.321 5514.7517 235.142 5505.897 250.805 5525.378 255.48 5490.2067 222.712 5482.7995 178.953 5509.493 198.023 5461.894 185.318 5430.7956 151.396 5441.2009Z" fill="#ffffff"/>
<path transform="matrix(.994536,0,0,-.994536,9.063507,5650.8186)" d="M287.265 5480.6437C265.467 5468.4055 268.07 5430.7019 273.45 5403.1257 274.114 5399.803 274.817 5396.638 275.49 5393.7116 272.762 5394.899 269.757 5396.1135 266.652 5397.2419 240.338 5407.0925 203.517 5415.9465 187.856 5396.4655 183.181 5431.637 215.949 5439.0466 259.706 5412.35 240.635 5459.951 253.343 5491.0505 287.265 5480.6437Z" fill="#ffffff"/>
<path transform="matrix(.994536,0,0,-.994536,9.063446,5650.8166)" d="M218.446 5480.39C230.199 5470.8625 233.75 5447.576 233.75 5447.576 233.75 5447.576 211.366 5454.913 203.904 5468.077 198.345 5477.8854 209.687 5487.492 218.446 5480.39Z" fill="#ffffff"/>
<path transform="matrix(.994536,0,0,-.994536,9.063072,5650.815)" d="M143.045 5650.303C121.247 5638.0637 123.85 5600.3605 129.231 5572.7839 129.894 5569.4606 130.596 5566.2956 131.27 5563.367 128.542 5564.556 125.538 5565.7717 122.432 5566.899 96.118 5576.7526 59.297 5585.6047 43.636 5566.1257 38.961 5601.2956 71.728 5608.7048 115.486 5582.0085 96.417 5629.6096 109.123 5660.7087 143.045 5650.303Z" fill="#ffffff"/>
<path transform="matrix(.994536,0,0,-.994536,9.062996,5650.818)" d="M67.085 5624.476C55.332 5634.0056 51.783 5657.2927 51.783 5657.2927 51.783 5657.2927 74.165 5649.953 81.627 5636.7907 87.188 5626.9826 75.845 5617.375 67.085 5624.476Z" fill="#ffffff"/>
<path transform="matrix(.994536,0,0,-.994536,9.063232,5650.8229)" d="M190.607 5218.6428C189.095 5221.438 187.053 5224.019 184.602 5226.2385 178.916 5231.39 171.087 5234.5466 163.341 5234.6276 156.272 5234.7028 147.462 5231.915 144.339 5225.9816 142.574 5222.6247 141.996 5217.4606 143.776 5213.7878 144.97 5211.3205 147.053 5209.2106 149.64 5207.855 154.496 5205.316 158.459 5207.3825 163.239 5206.356 179.675 5202.828 170.989 5191.5866 165.503 5188.6247 161.811 5186.6296 157.369 5186.1218 152.999 5186.2976 109.442 5188.058 122.432 5236.1896 131.894 5258.6638 141.546 5281.594 157.351 5302.5925 163.697 5326.7937 167 5339.3815 166.209 5356.493 155.61 5366.7155 154.436 5365.313 153.267 5363.9045 152.102 5362.497 151.442 5360.87 150.711 5359.2736 149.983 5357.6755 152.69 5349.094 152.139 5338.7727 151.42 5331.6535 149.582 5313.473 141.19 5296.914 133.264 5280.7658 126.483 5266.953 120.109 5253.075 116.225 5238.1618 112.882 5225.329 108.884 5209.7087 113.682 5196.2155 121.021 5175.5856 147.098 5163.4216 168.401 5170.407 188.892 5177.1228 201.254 5198.95 190.607 5218.6428Z" fill="#ffffff"/>
<path transform="matrix(.994536,0,0,-.994536,9.063187,5650.8195)" d="M129.116 5261.896C129.624 5263.0456 130.141 5264.1916 130.668 5265.327 130.144 5264.1877 129.628 5263.0417 129.116 5261.896Z" fill="#ffffff"/>
<path transform="matrix(.994536,0,0,-.994536,9.063065,5650.8186)" d="M6.803 5385.519C3.295 5372.2678 5.425 5356.7639 15.624 5345.7116 25.822 5334.658 45.007 5330.073 56.916 5337.974 68.824 5345.874 67.277 5366.449 53.01 5372.493 45.141 5375.827 35.457 5374.6125 28.602 5379.5607 22.775 5383.7678 21.039 5391.438 23.083 5397.5285 25.125 5403.618 30.258 5408.303 35.948 5411.8806 79.039 5438.9645 138.028 5406.0476 147.074 5360.392 155.305 5318.839 125.76 5285.7849 95.549 5257.0236 79.6 5241.836 43.215 5234.5808 31.005 5261.0017 29.835 5263.538 28.136 5266.832 25.211 5266.6418 24.112 5266.5686 23.196 5265.959 22.391 5265.3225 16.212 5260.4255 13.272 5252.6706 13.483 5244.936 13.751 5235.032 18.578 5224.2478 26.317 5216.7019 29.744 5213.3605 41.88 5209.4245 43.529 5206.0017 45.362 5202.1906 36.454 5188.7727 34.707 5185.1628 18.04 5150.7116-5.103 5113.91 6.676 5073.2048 9.217 5064.4274 17.391 5068.7468 20.886 5073.6848 28.067 5083.837 39.184 5091.595 45.387 5102.2517 49.533 5100.618 53.159 5096.813 57.741 5095.0637 62.975 5093.0637 68.636 5092.2458 74.112 5092.5495 94.824 5093.7048 106.825 5108.0236 109.581 5123.534 110.058 5126.2209 106.634 5128.1325 103.956 5126.513 87.691 5116.6867 77.193 5138.428 76.476 5147.8845 75.647 5158.7897 77.083 5169.6667 78.837 5180.2966 82.319 5201.4006 92.897 5219.1525 106.142 5235.615 133.417 5262.0686 157.122 5292.7585 166.099 5328.7375 172.736 5355.334 167.871 5386.6535 146.146 5407.6945 137.798 5415.7775 127.406 5421.913 116.22 5426.0876 110.767 5428.1228 105.127 5429.6916 99.443 5430.7937 60.011 5438.438 15.918 5419.9445 6.803 5385.519Z" fill="#ffffff"/>
<path transform="matrix(.994536,0,0,-.994536,9.064056,5650.816)" d="M488.635 5479.849C485.839 5481.3615 483.26 5483.4035 481.039 5485.854 475.887 5491.5407 472.731 5499.367 472.65 5507.115 472.575 5514.1867 475.362 5522.996 481.296 5526.117 484.652 5527.8845 489.817 5528.4606 493.49 5526.6809 495.958 5525.4846 498.067 5523.4035 499.422 5520.816 501.963 5515.9606 499.895 5511.997 500.922 5507.2175 504.448 5490.7795 515.69 5499.469 518.6509 5504.953 520.647 5508.6447 521.154 5513.0886 520.978 5517.457 519.216 5561.014 471.087 5548.0227 448.614 5538.5627 425.683 5528.909 404.685 5513.1057 380.486 5506.7595 367.898 5503.456 350.785 5504.2478 340.562 5514.846 341.966 5516.0207 343.371 5517.1896 344.78 5518.354 346.407 5519.014 348.005 5519.7458 349.602 5520.473 358.185 5517.7697 368.507 5518.317 375.624 5519.036 393.804 5520.874 410.363 5529.2668 426.512 5537.1936 440.326 5543.974 454.202 5550.348 469.118 5554.2346 481.948 5557.575 497.569 5561.573 511.062 5556.7736 531.692 5549.436 543.856 5523.359 536.873 5502.056 530.155 5481.5646 508.326 5469.2028 488.635 5479.849Z" fill="#ffffff"/>
<path transform="matrix(.994536,0,0,-.994536,9.064117,5650.817)" d="M445.381 5541.3405C444.233 5540.83 443.088 5540.316 441.95 5539.7888 443.092 5540.312 444.236 5540.828 445.381 5541.3405Z" fill="#ffffff"/>
<path transform="matrix(.994536,0,0,-.994536,9.064148,5650.8156)" d="M321.758 5663.6535C335.01 5667.1618 350.514 5665.0295 361.566 5654.831 372.619 5644.6345 377.204 5625.448 369.303 5613.5407 361.405 5601.6315 340.83 5603.1774 334.786 5617.4445 331.45 5625.315 332.665 5634.997 327.717 5641.852 323.51 5647.679 315.841 5649.415 309.749 5647.371 303.659 5645.329 298.974 5640.1955 295.397 5634.5065 268.314 5591.416 301.23 5532.4255 346.887 5523.3806 388.438 5515.1506 421.493 5544.6965 450.256 5574.9055 465.443 5590.855 472.697 5627.2395 446.277 5639.448 443.74 5640.6208 440.446 5642.3215 440.639 5645.2458 440.711 5646.3425 441.32 5647.2585 441.956 5648.0637 446.853 5654.2409 454.608 5657.1828 462.342 5656.971 472.246 5656.7038 483.03 5651.876 490.578 5644.137 493.919 5640.7106 497.853 5628.574 501.276 5626.9274 505.087 5625.0925 518.506 5634.0007 522.113 5635.7468 556.562 5652.415 593.367 5675.557 634.073 5663.7775 642.8459 5661.2385 638.531 5653.0607 633.593 5649.5676 623.443 5642.386 615.682 5631.2697 605.026 5625.0686 606.6589 5620.9206 610.468 5617.2927 612.2141 5612.7136 614.21 5607.479 615.032 5601.818 614.728 5596.3425 613.573 5575.6306 599.254 5563.6286 583.747 5560.873 581.061 5560.396 579.145 5563.8205 580.768 5566.498 590.591 5582.7639 568.8489 5593.2619 559.397 5593.978 548.4921 5594.807 537.611 5593.373 526.981 5591.615 505.877 5588.1335 488.125 5577.557 471.662 5564.314 445.209 5537.037 414.521 5513.33 378.54 5504.355 351.943 5497.7219 320.624 5502.5837 299.585 5524.306 291.501 5532.6545 285.366 5543.0485 281.19 5554.2346 279.155 5559.6877 277.586 5565.329 276.484 5571.011 268.839 5610.4475 287.333 5654.5407 321.758 5663.6535Z" fill="#ffffff"/>
<path transform="matrix(.994536,0,0,-.994536,9.063751,5650.8186)" d="M417.853 5495.996C413.775 5487.7517 406.944 5480.83 403.546 5472.3225 400.702 5473.0676 398.06 5475.4655 394.923 5476.2458 391.338 5477.139 387.549 5477.118 383.955 5476.2937 370.36 5473.1706 363.373 5461.334 362.566 5449.6408 362.426 5447.615 364.81 5446.5856 366.472 5448.0695 376.567 5457.0705 384.913 5442.2556 386.005 5435.387 387.262 5427.469 387.025 5419.3205 386.559 5411.317 385.638 5395.434 379.816 5381.2316 372.149 5367.6838 369.377 5363.865 366.691 5359.9606 364.109 5355.9885 364.724 5358.867 365.25 5361.7717 365.661 5364.7097 367.03 5374.5017 368.65 5386.414 364.602 5395.7985 358.413 5410.1467 340.407 5416.2175 326.802 5408.7487 313.715 5401.5617 306.98 5384.1726 315.291 5370.875 316.473 5368.9875 317.988 5367.315 319.749 5365.954 323.839 5362.7956 329.211 5361.336 334.332 5362.1276 339.001 5362.848 344.636 5365.8645 346.307 5370.5656 347.254 5373.2268 347.3 5377.0827 345.885 5379.5856 344.934 5381.2668 343.423 5382.5886 341.627 5383.2985 338.256 5384.6306 335.774 5382.6765 332.554 5382.9055 321.476 5383.6906 326.476 5392.9035 329.903 5395.6828 332.209 5397.5524 335.108 5398.414 338.003 5398.7639 366.867 5402.2546 361.433 5365.471 356.655 5347.9245 355.738 5344.557 354.672 5341.2165 353.529 5337.886 352.995 5336.849 352.474 5335.807 351.958 5334.7639 347.47 5333.2517 343.038 5331.537 338.673 5329.638 335.275 5328.7229 331.868 5327.8845 328.446 5327.1945 310.618 5323.6057 273.554 5320.6525 278.974 5349.2155 279.517 5352.0817 280.572 5354.914 282.592 5357.0915 285.595 5360.324 295.121 5364.6945 295.162 5353.5895 295.173 5350.3605 293.059 5348.015 294.162 5344.5627 294.751 5342.7229 295.967 5341.1257 297.582 5340.0656 299.983 5338.4855 303.835 5338.2736 306.552 5339.036 311.354 5340.39 314.74 5345.81 315.774 5350.4226 316.908 5355.475 315.813 5360.935 312.936 5365.2277 311.696 5367.077 310.131 5368.7009 308.325 5370.0056 295.618 5379.1926 277.813 5373.638 269.766 5361.0637 261.399 5347.99 266.248 5329.617 280.149 5322.4807 289.24 5317.813 301.235 5318.6276 311.097 5319.337 314.055 5319.5505 316.989 5319.8825 319.902 5320.3005 315.765 5317.992 311.69 5315.5725 307.694 5313.0646 293.66 5306.3215 279.101 5301.4665 263.19 5301.6115 255.176 5301.6848 247.03 5301.994 239.212 5303.7819 232.435 5305.33 218.212 5314.6525 227.872 5324.119 229.463 5325.6818 228.597 5328.1286 226.565 5328.1237 214.845 5328.1047 202.565 5321.9274 198.538 5308.5725 197.472 5305.0427 197.199 5301.2609 197.848 5297.6267 198.417 5294.4426 200.632 5291.6457 201.183 5288.7575 192.466 5285.937 185.104 5279.5876 176.603 5276.0715 172.467 5274.3615 168.062 5269.532 174.067 5266.872 201.907 5254.5466 232.281 5265.408 259.942 5272.319 262.841 5273.0446 273.987 5277.309 276.48 5275.678 278.722 5274.2145 279.722 5265.8625 281.628 5263.2497 285.934 5257.345 293.049 5252.9675 300.223 5251.6618 305.824 5250.6418 311.927 5251.6618 316.446 5255.1315 317.033 5255.5817 317.618 5256.1096 317.839 5256.815 318.43 5258.699 316.292 5260.1828 314.623 5261.2355 297.255 5272.2077 308.139 5295.0686 321.657 5303.7165 329.044 5308.4436 336.684 5313.0886 344.511 5317.0705 341.768 5309.1628 339.737 5301.034 338.649 5292.6926 336.003 5272.4274 341.258 5249.955 356.967 5236.888 363.005 5231.865 370.265 5228.499 377.922 5226.6638 381.654 5225.7668 385.48 5225.2346 389.303 5225.0485 415.827 5223.7629 443.723 5242.1906 447.491 5268.478 447.876 5271.1608 447.981 5273.916 447.799 5276.6467 448.43 5279.8605 448.792 5283.117 448.854 5286.374 448.925 5290.2019 448.65 5294.054 448.006 5297.837 446.687 5305.598 443.816 5313.0695 439.21 5319.428 427.226 5335.9816 405.157 5342.7316 384.761 5341.452 380.152 5341.1628 375.593 5340.5666 371.075 5339.7429 374.112 5344.2966 377.309 5348.7585 380.533 5353.1218 390.07 5366.0266 413.61 5375.352 423.392 5357.2868 424.331 5355.5524 425.667 5353.3205 427.584 5353.7829 428.305 5353.955 428.87 5354.5036 429.36 5355.059 433.117 5359.337 434.55 5365.355 433.908 5371.012 433.086 5378.2575 429.196 5385.6496 423.595 5390.345 421.116 5392.4226 412.849 5393.978 411.539 5396.313 410.081 5398.909 415.083 5409.7458 415.999 5412.5895 424.752 5439.7258 437.627 5469.2995 427.198 5497.9064 424.951 5504.078 419.836 5500.0095 417.853 5495.996ZM402.026 5238.868C395.881 5238.318 389.533 5238.1437 383.431 5239.1638 376.441 5240.33 369.702 5243.411 364.891 5248.7155 359.102 5255.098 355.536 5263.2995 353.272 5271.534 348.169 5290.0837 353.066 5307.81 361.877 5324.475 367.166 5326.2429 372.615 5327.5686 378.156 5328.2185 390.504 5329.6687 403.703 5327.6477 414.054 5320.4226 433.502 5306.847 445.97 5275.4206 431.392 5254.339 428.354 5249.9465 424.721 5245.8225 420.061 5243.2136 417.801 5241.951 415.377 5241.0817 412.869 5240.457 409.343 5239.5827 405.654 5239.1936 402.026 5238.868Z" fill="#ffffff"/>
<text fill="#ffffff" xml:space="preserve" transform="matrix(1 0 -0 1 0 5669.29)" font-size="136.50583" font-family="Trocchi"><tspan y="-5414.5607" x="1293.8867">|</tspan></text>
<text fill="#ffffff" xml:space="preserve" transform="matrix(1 0 -0 1 0 5669.29)" font-size="136.50583" font-family="Trocchi"><tspan y="-5414.5607" x="1334.1216">|</tspan></text>
<text fill="#ffffff" xml:space="preserve" transform="matrix(1 0 -0 1 0 5669.29)" font-size="136.50583" font-family="Trocchi"><tspan y="-5414.5607" x="1374.3565">S</tspan></text>
<text fill="#ffffff" xml:space="preserve" transform="matrix(1 0 -0 1 0 5669.29)" font-size="136.50583" font-family="Trocchi"><tspan y="-5414.5607" x="1471.238">H</tspan></text>
<text fill="#ffffff" xml:space="preserve" transform="matrix(1 0 -0 1 0 5669.29)" font-size="136.50583" font-family="Trocchi"><tspan y="-5414.5607" x="1589.2453">R</tspan></text>
<text fill="#ffffff" xml:space="preserve" transform="matrix(1 0 -0 1 0 5669.29)" font-size="136.50583" font-family="Trocchi"><tspan y="-5414.5607" x="1702.5209">E</tspan></text>
<text fill="#ffffff" xml:space="preserve" transform="matrix(1 0 -0 1 0 5669.29)" font-size="136.50583" font-family="Trocchi"><tspan y="-5414.5607" x="1809.1989">E</tspan></text>
<text fill="#ffffff" xml:space="preserve" transform="matrix(1 0 -0 1 0 5669.29)" font-size="136.50583" font-family="Trocchi"><tspan y="-5414.5607" x="1915.8768">G</tspan></text>
<text fill="#ffffff" xml:space="preserve" transform="matrix(1 0 -0 1 0 5669.29)" font-size="136.50583" font-family="Trocchi"><tspan y="-5414.5607" x="2030.2188">A</tspan></text>
<text fill="#ffffff" xml:space="preserve" transform="matrix(1 0 -0 1 0 5669.29)" font-size="136.50583" font-family="Trocchi"><tspan y="-5414.5607" x="2148.7593">N</tspan></text>
<text fill="#ffffff" xml:space="preserve" transform="matrix(1 0 -0 1 0 5669.29)" font-size="136.50583" font-family="Trocchi"><tspan y="-5414.5607" x="2271.165">E</tspan></text>
<text fill="#ffffff" xml:space="preserve" transform="matrix(1 0 -0 1 0 5669.29)" font-size="136.50583" font-family="Trocchi"><tspan y="-5414.5607" x="2377.843">S</tspan></text>
<text fill="#ffffff" xml:space="preserve" transform="matrix(1 0 -0 1 0 5669.29)" font-size="136.50583" font-family="Trocchi"><tspan y="-5414.5607" x="2474.7247">H</tspan></text>
<text fill="#ffffff" xml:space="preserve" transform="matrix(1 0 -0 1 0 5669.29)" font-size="136.50583" font-family="Trocchi"><tspan y="-5414.5607" x="2592.7318">|</tspan></text>
<text fill="#ffffff" xml:space="preserve" transform="matrix(1 0 -0 1 0 5669.29)" font-size="136.50583" font-family="Trocchi"><tspan y="-5414.5607" x="2632.9666">|</tspan></text>
<text fill="#ffffff" xml:space="preserve" transform="matrix(1 0 -0 1 0 5669.29)" font-size="136.50583" font-family="Trocchi"><tspan y="-5056.754" x="1599.1926"> </tspan></text>
<text fill="#ffffff" xml:space="preserve" transform="matrix(1 0 -0 1 0 5669.29)" font-size="136.50583" font-family="Trocchi"><tspan y="-5056.754" x="1638.9609">B</tspan></text>
<text fill="#ffffff" xml:space="preserve" transform="matrix(1 0 -0 1 0 5669.29)" font-size="136.50583" font-family="Trocchi"><tspan y="-5056.754" x="1743.0399">I</tspan></text>
<text fill="#ffffff" xml:space="preserve" transform="matrix(1 0 -0 1 0 5669.29)" font-size="136.50583" font-family="Trocchi"><tspan y="-5056.754" x="1802.0681">O</tspan></text>
<text fill="#ffffff" xml:space="preserve" transform="matrix(1 0 -0 1 0 5669.29)" font-size="136.50583" font-family="Trocchi"><tspan y="-5056.754" x="1915.7435"> </tspan></text>
<text fill="#ffffff" xml:space="preserve" transform="matrix(1 0 -0 1 0 5669.29)" font-size="136.50583" font-family="Trocchi"><tspan y="-5056.754" x="1955.512">D</tspan></text>
<text fill="#ffffff" xml:space="preserve" transform="matrix(1 0 -0 1 0 5669.29)" font-size="136.50583" font-family="Trocchi"><tspan y="-5056.754" x="2056.9918">A</tspan></text>
<text fill="#ffffff" xml:space="preserve" transform="matrix(1 0 -0 1 0 5669.29)" font-size="136.50583" font-family="Trocchi"><tspan y="-5056.754" x="2158.8714">T</tspan></text>
<text fill="#ffffff" xml:space="preserve" transform="matrix(1 0 -0 1 0 5669.29)" font-size="136.50583" font-family="Trocchi"><tspan y="-5056.754" x="2249.3553">A</tspan></text>
<text fill="#ffffff" xml:space="preserve" transform="matrix(1 0 -0 1 0 5669.29)" font-size="126.10159" font-family="Roboto"><tspan y="-4667.9357" x="197.8335 287.74397 356.34324 466.80824 533.6421 564.9153 596.1885 627.4617 658.73489 690.00808 721.28128 752.55447 783.82766 815.1008 846.374 877.6472 908.9204 940.1936 971.4668 1002.74 1034.0132 1065.2864 1096.5596 1127.8328 1159.106 1190.3792 1221.6524 1252.9255 1284.1987 1315.4719 1346.7451 1378.0183 1409.2915 1440.5647 1471.8379 1503.1111 1533.6277 1564.9009 1596.1741 1627.4473 1658.7205 1689.9937 1721.2669 1752.54 1783.8132 1815.0864 1846.3596 1928.5779 2006.2565 2088.3487 2178.259 2260.4774 2350.3878 2432.606 2463.8792 2542.9449 2624.6588 2734.7454 2816.9637 2894.642">Name                               :          ARCHANA KUMARI</tspan></text>
<text fill="#ffffff" xml:space="preserve" transform="matrix(1 0 -0 1 0 5669.29)" font-size="126.10159" font-family="Roboto"><tspan y="-4413.051" x="212.99427 295.71693 364.3162 405.55143 472.38526 503.65846 575.5364 619.29367 650.56686 729.1281 759.7708 802.3931 843.62838 913.11038 944.38357 975.65676 1006.92996 1038.2031 1069.4763 1100.7495 1132.0227 1163.2959 1194.5691 1225.8423 1257.1155 1288.3887 1319.6619 1350.935 1382.2083 1413.4815 1444.7546 1476.0278 1507.301 1537.8176 1569.0908 1600.364 1631.6372 1662.9104 1694.1836 1725.4568 1756.73 1788.0032 1819.2764 1850.5496 1921.4187 1992.2879 2023.561 2106.2838 2173.1175 2239.0687 2305.9024 2416.3675 2487.1104 2553.944 2596.5665 2627.8397 2698.7088 2769.578 2840.447">Date of Birth                   :          08 December 2002</tspan></text>
<text fill="#ffffff" xml:space="preserve" transform="matrix(1 0 -0 1 0 5669.29)" font-size="128.14833" font-family="Roboto"><tspan y="-4169.135" x="228.11292 319.48268 387.40129 418.54133 490.43257 561.0423 602.9468 634.72756 666.5083 698.28909 730.0698 761.8506 793.63137 825.4121 857.1929 888.97366 920.7544 952.53518 984.3159 1016.0967 1047.8775 1079.6582 1111.439 1143.2197 1175.0005 1206.7813 1238.562 1270.3428 1302.1235 1333.9043 1365.685 1397.4658 1429.2466 1461.0274 1492.8081 1524.5889 1556.3696 1587.3815 1619.1622 1650.943 1682.7238 1714.5045 1746.2853 1778.066 1809.8468 1841.6276 1873.4083 1905.1891 1977.2085 2008.9893 2053.4569 2095.3614 2129.0645 2160.8453 2232.8646 2264.6453 2295.7855 2366.5233 2433.5447 2504.1544">Height                              :          5 ft. 2 inch.</tspan></text>
<text fill="#ffffff" xml:space="preserve" transform="matrix(1 0 -0 1 0 5669.29)" font-size="128.14833" font-family="Roboto"><tspan y="-3967.8126" x="228.11292 311.53749 381.25019 447.37474 489.27925 557.1979 588.97866 620.7594 652.54019 684.3209 716.1017 747.88247 779.6632 811.444 843.22476 875.0055 906.78628 938.567 970.3478 1002.12857 1033.9093 1065.6901 1097.4708 1129.2516 1161.0324 1192.8131 1224.5939 1256.3746 1288.1554 1319.9362 1351.7169 1383.4977 1415.2785 1447.0592 1478.84 1510.6207 1542.4015 1573.4133 1605.1941 1636.9749 1668.7556 1700.5364 1732.3171 1764.0979 1795.8787 1827.6594 1859.4402 1891.221 1971.57 2054.61 2166.4837 2257.8536 2341.4063">Caste                               :          KUMHAR</tspan></text>
<text fill="#ffffff" xml:space="preserve" transform="matrix(1 0 -0 1 0 5669.29)" font-size="128.14833" font-family="Roboto"><tspan y="-3766.4884" x="228.11292 315.38194 388.42649 430.331 473.64515 543.35787 575.1386 606.9194 638.70016 670.4809 702.26168 734.0424 765.8232 797.60397 829.3847 861.16549 892.9462 924.727 956.50778 988.2885 1020.0693 1051.8501 1083.6309 1115.4116 1147.1924 1178.9732 1210.7539 1242.5347 1274.3154 1306.0962 1337.877 1369.6577 1401.4385 1433.2192 1465 1496.7808 1528.5615 1560.3423 1591.3541 1623.1349 1654.9157 1686.6964 1718.4772 1750.2579 1782.0387 1813.8195 1845.6002 1877.381 1909.1618 1989.5108 2073.0635 2149.0555 2240.4254 2317.4425 2400.995">Gotra                                :          KASHYAP</tspan></text>
<text fill="#ffffff" xml:space="preserve" transform="matrix(1 0 -0 1 0 5669.29)" font-size="128.14833" font-family="Roboto"><tspan y="-3565.162" x="228.11292 297.0567 366.7694 437.5073 509.3985 580.00827 649.72097 721.6122 789.5308 855.6554 887.43618 919.2169 950.9977 982.77847 1014.5592 1046.34 1078.1207 1109.9015 1141.6823 1173.463 1205.2438 1237.0245 1268.8053 1300.586 1332.3668 1364.1476 1395.9284 1427.7091 1459.4899 1491.2706 1523.0514 1554.8322 1585.844 1617.6248 1649.4055 1681.1863 1712.967 1744.7478 1776.5286 1808.3093 1840.0901 1871.8709 1903.6516 1976.4398 2047.1777 2119.0689 2150.209 2181.349 2247.4737 2318.0833 2343.2005 2374.9813 2466.351 2497.4913 2568.229 2640.5047 2671.6448">Languages                      :          English, Hindi </tspan></text>
<text fill="#ffffff" xml:space="preserve" transform="matrix(1 0 -0 1 0 5669.29)" font-size="128.14833" font-family="Roboto"><tspan y="-3363.836" x="228.11292 311.53749 384.58204 496.83998 568.7312 599.8712 667.78988 731.35147 762.49148 835.536 906.2739 938.0547 969.83547 1001.6162 1033.397 1065.1777 1096.9585 1128.7393 1160.52 1192.3008 1224.0816 1255.8623 1287.6431 1319.4238 1351.2046 1382.9854 1414.7661 1446.5469 1478.3276 1510.1084 1541.8892 1573.6699 1604.6818 1636.4625 1668.2433 1700.024 1731.8048 1763.5856 1795.3663 1827.1471 1858.9279 1890.7086 1922.4894 2034.3629 2065.503 2096.643 2161.6143 2222.2286 2254.0093 2350.2489 2420.8585 2451.9986 2493.903">Complexion                     :          Milky white</tspan></text>
<text fill="#ffffff" xml:space="preserve" transform="matrix(1 0 -0 1 0 5669.29)" font-size="168.1382" font-family="Roboto"><tspan y="-1108.2109" x="240.99066 350.61677 460.91545 571.2141 674.78726 770.28976 869.9957">ADDRESS</tspan></text>
<text fill="#ffffff" xml:space="preserve" transform="matrix(1 0 -0 1 0 5669.29)" font-size="153.33454" font-family="Roboto"><tspan y="-865.33206" x="237.75708 337.7312 387.87159 430.19194 468.21888 568.80636 653.29367 736.70767 821.3483 899.0889 983.57626 1064.8435 1116.6705 1153.9308">At- Dhankheri </tspan></text>
<text fill="#ffffff" xml:space="preserve" transform="matrix(1 0 -0 1 0 5669.29)" font-size="153.33454" font-family="Roboto"><tspan y="-664.3086" x="237.75708 334.51118 374.83815 462.23884 549.1795 645.9336 686.26058 777.1879 819.50827 861.2152 911.3556 989.0962 1073.5835 1160.9841 1212.8112 1250.0714 1288.0984">P.o+P.S-Itkhori  </tspan></text>
<text fill="#ffffff" xml:space="preserve" transform="matrix(1 0 -0 1 0 5669.29)" font-size="153.33454" font-family="Roboto"><tspan y="-463.29103" x="237.75708 338.34455 375.60484 454.72547 504.86585 547.18618 585.21316 685.03396 769.52127 852.93527 903.0756 954.9027 1038.3167 1076.3436 1162.5176 1248.6917 1334.8657 1421.0398 1507.2139 1593.388 1631.4149 1683.8554 1768.496 1852.9833 1936.3972 1988.2243 2065.9649 2150.4522 2233.8663 2318.5069 2404.9876 2458.348">Dist- Chatra 825408 (Jharkhand) </tspan></text>
<text fill="#ffffff" xml:space="preserve" transform="matrix(1 0 -0 1 0 5669.29)" font-size="148.96805" font-family="Roboto"><tspan y="-2145.625" x="201.28974 283.66908 380.79624 510.84535 551.3646 631.50949 721.03927 757.98336 794.9274 892.65048 977.2643 1065.6023 1162.5806 1254.3449 1294.8641 1388.863 1477.797 1518.3163 1620.8063">FAMILY  DESCRIPTION</tspan></text>
<text fill="#ffffff" xml:space="preserve" transform="matrix(1 0 -0 1 0 5669.29)" font-size="126.10159" font-family="Roboto"><tspan y="-880.81057" x="198.64417 229.91736 261.19056 292.46376 323.73695 355.01014 386.28334 417.55653 448.8297 480.1029 511.3761 542.6493 573.9225 605.1957 636.4689 667.74209 699.01528 730.28848 761.56167 792.83486 824.10806 855.3812 886.6544 917.9276 949.2008 980.474 1011.7472 1043.0204 1074.2936 1105.5668 1136.84 1168.1132 1199.3864 1230.6596 1261.9328 1293.2059 1324.4791 1355.7523 1387.0255 1418.2987 1449.5719 1480.8451 1512.1183 1543.3915 1574.6647 1605.9379 1637.211 1668.4843 1699.7575 1731.0307 1762.3038 1793.577 1824.8502 1856.1234 1887.3966 1918.6698 1949.943 1981.2162 2012.4894 2043.7626 2075.036 2106.309 2137.5823 2168.8555 2200.1287 2282.2208 2368.9786 2458.889 2534.1717 2616.39 2698.482 2773.7647 2805.0379 2894.9483 2976.662 3086.7489 3165.31 3236.9359 3314.6143 3345.8875 3376.404">                                                                CONTACT NUMBER : </tspan></text>
<text fill="#ffffff" xml:space="preserve" transform="matrix(1 0 -0 1 0 5669.29)" font-size="126.10159" font-family="Roboto"><tspan y="-715.52737" x="198.64417 229.91736 261.19056 292.46376 323.73695 355.01014 386.28334 417.55653 448.8297 480.1029 511.3761 542.6493 573.9225 605.1957 636.4689 667.74209 699.01528 730.28848 761.56167 792.83486 824.10806 855.3812 886.6544 917.9276 949.2008 980.474 1011.7472 1043.0204 1074.2936 1105.5668 1136.84 1168.1132 1199.3864 1230.6596 1261.9328 1293.2059 1324.4791 1355.7523 1387.0255 1418.2987 1449.5719 1480.8451 1512.1183 1543.3915 1574.6647 1605.9379 1637.211 1668.4843 1699.7575 1731.0307 1762.3038 1793.577 1824.8502 1856.1234 1887.3966 1918.6698 1949.943 1981.2162 2012.4894 2043.7626 2075.036 2106.309 2137.5823 2208.4515 2279.3206 2350.1898 2421.0589 2491.928 2562.797 2633.6663 2704.5355 2775.4046 2846.2738 2877.5469 2955.9822 2987.2554 3018.5286 3089.3978 3160.2669 3231.136 3302.0052 3372.8743 3443.7435 3514.6126 3585.4818 3656.3509">                                                              9471371281 &#x0026;  9661515728</tspan></text>
<text fill="#ffffff" xml:space="preserve" transform="matrix(1 0 -0 1 0 5669.29)" font-size="110.3531" font-family="Roboto"><tspan y="-3000.2012" x="178.88214 241.56272 313.95436 385.46318 457.30305 529.2533 595.1341 625.15017 701.07308 779.7548 851.7051 911.0751">EDUCATIONAL-</tspan></text>
<text fill="#ffffff" xml:space="preserve" transform="matrix(1 0 -0 1 0 5669.29)" font-size="110.3531" font-family="Roboto"><tspan y="-2855.541" x="178.88214 254.80509 326.3139 398.26414 457.6341 487.65016 548.6754 578.69149 650.5314 722.48159 788.36239 818.3784 894.30136 972.9831">QUALIFICATION </tspan></text>
<text fill="#ffffff" xml:space="preserve" transform="matrix(1 0 -0 1 0 5669.29)" font-size="110.3531" font-family="Roboto"><tspan y="-2566.213" x="178.88214 248.51496 316.49247 379.17304 444.61244 507.293 585.9748 651.8556 711.2256">PRESENTLY</tspan></text>
<text fill="#ffffff" xml:space="preserve" transform="matrix(1 0 -0 1 0 5669.29)" font-size="110.3531" font-family="Roboto"><tspan y="-2421.5509" x="178.88214 248.51496 320.02378 388.00129 453.44068 524.94949 554.9655 633.6473">PURSUING</tspan></text>
<text fill="#ffffff" xml:space="preserve" transform="matrix(1 0 -0 1 0 5669.29)" font-size="149.01364" font-family="Roboto"><tspan y="-2952.2794" x="1543.695 1580.6504"> :</tspan></text>
<text fill="#ffffff" xml:space="preserve" transform="matrix(1 0 -0 1 0 5669.29)" font-size="149.01364" font-family="Roboto"><tspan y="-2561.5919" x="1543.695 1580.6504"> :</tspan></text>
<text fill-opacity="0" xml:space="preserve" transform="matrix(1 0 -0 1 0 5669.29)" font-size="1" font-family="Helvetica"><tspan y="-1.225" x="2.835 3.502 4.058 4.78 5.3360006 5.6690008 6.225001 6.781001 7.059001 7.615001 8.115002 8.393002 9.004002 9.726002 10.393002 11.115002 11.726002 12.004002 12.337002 13.059002 13.781002 14.503002 14.781002 15.059002 15.559002 16.115002 16.671002 16.949002 17.227002 17.783 18.116002 18.672">Powered by TCPDF (www.tcpdf.org)</tspan></text>
<text fill="#ffffff" xml:space="preserve" transform="matrix(1 0 -0 1 0 5669.29)" font-size="126.10159" font-family="Roboto"><tspan y="-1872.5156" x="198.64417 268.37837 336.97764 378.21287 447.69483 514.5287 557.151 579.09268 644.1612 675.43429 765.34487 833.9441 944.4091 1011.243 1042.5161 1073.7892 1105.0623 1135.579 1166.852 1198.1251 1229.3984 1260.6715 1339.7372 1421.9556 1532.0421 1614.7649 1686.3906 1773.1486 1804.4216 1883.9918 1961.6703 2043.8886 2113.4967 2195.7144 2275.2847 2357.5032 2432.7862 2467.0855 2498.359 2541.4854 2620.0469 2689.5286 2754.597 2785.2398 2854.8475 2921.6815 2986.7498 3051.818 3095.701 3138.8275 3202.761 3233.4034 3276.0262 3344.625 3414.2335 3482.833 3514.106 3579.1749 3620.4102 3692.288 3734.9102 3801.7442">Father's Name   :    KAMDEO PRAJAPATI (Business)(kirana store)</tspan></text>
<text fill="#ffffff" xml:space="preserve" transform="matrix(1 0 -0 1 0 5669.29)" font-size="126.10159" font-family="Roboto"><tspan y="-1707.2305" x="198.64417 308.73088 380.60877 421.844 491.326 558.15988 600.78219 622.7238 687.79226 719.0654 808.9759 877.5752 988.0402 1054.874 1086.1471 1117.4203 1148.6935 1179.21 1210.483 1241.7562 1273.0293 1304.3025 1387.0252 1458.6509 1538.8515 1621.0698 1710.9802 1786.2628 1820.5624 1851.8356 1934.5581 2006.1838 2086.3848 2120.684 2151.9576 2195.084 2284.9942 2356.8726 2467.3372 2534.1712 2644.6358 2713.2354 2777.169 2844.0025 2886.6253">Mother's Name   :    DEVANTI DEVI (Homemaker)</tspan></text>
<text fill="#ffffff" xml:space="preserve" transform="matrix(1 0 -0 1 0 5669.29)" font-size="126.10159" font-family="Roboto"><tspan y="-1541.9473" x="198.64417 273.42243 304.06513 374.80815 405.45085 436.09355 505.70164 576.44467 641.5132 672.78628 704.05947 735.33267 766.60586 797.879 829.1521 860.4253 891.6985 922.9717 954.2449 985.51809 1016.79129 1048.0645 1079.3375 1110.6106 1141.1272 1172.4004 1203.6735 1234.9465 1305.8156 1337.0888 1412.8759 1484.7539 1554.2359 1623.8439 1694.5869 1761.4208 1804.0432 1835.3163 1910.0946 1940.7372 2005.8057 2047.0408 2113.8743 2156.497 2221.5655 2252.8385 2283.3555 2314.6285 2385.4974 2418.6627 2493.4407 2562.9229 2593.5653 2624.2076 2694.9505 2725.5928 2756.8663 2835.9322 2905.4144 3015.879 3084.4786 3127.1007 3157.743">Siblings               :   2 Younger Sisters : 1.Shilpi Kumari </tspan></text>
<text fill="#ffffff" xml:space="preserve" transform="matrix(1 0 -0 1 0 5669.29)" font-size="126.10159" font-family="Roboto"><tspan y="-1376.6621" x="198.64417 229.91736 261.19056 292.46376 323.73695 355.01014 386.28334 417.55653 448.8297 480.1029 511.3761 542.6493 573.9225 605.19558 636.46878 667.74197 699.01516 730.2883 761.5614 792.8346 824.1078 855.381 886.6542 917.92739 949.20059 980.47378 1011.74697 1043.02 1074.2931 1105.5663 1136.8395 1168.1126 1199.3856 1230.6588 1261.9319 1293.2051 1324.4782 1355.7512 1387.0244 1418.2975 1449.5707 1480.8438 1512.117 1543.39 1574.6631 1605.9363 1637.2094 1668.4826 1699.7557 1731.0288 1762.302 1793.5751 1824.8482 1856.1213 1887.3944 1918.6676 1949.9407 1981.2138 2012.4869 2043.76 2075.033 2106.3065 2137.5794 2168.8524 2200.1253 2231.3983 2262.6717 2293.9447 2364.8143 2397.9788 2478.1795 2546.7784 2589.4012 2654.4696 2723.9512 2792.5509 2823.8238 2902.8897 2972.3719 3082.8365 3151.436 3194.0589">                                                                   2.Varsha Kumari</tspan></text>
<text fill="#ffffff" xml:space="preserve" transform="matrix(1 0 -0 1 0 5669.29)" font-size="141.85009" font-family="Roboto"><tspan y="-3044.916" x="1842.3638 1922.0835 2001.8032 2048.1885 2126.3477 2161.5264 2200.6773 2235.856 2315.5758 2388.7706 2435.1553 2470.334 2563.3878 2597.8572 2666.513 2703.8199 2738.9986 2774.1773 2822.69 2902.41 2982.1297 3061.8494 3141.569">10th - 1st Div.  (2019)</tspan></text>
<text fill="#ffffff" xml:space="preserve" transform="matrix(1 0 -0 1 0 5669.29)" font-size="141.85009" font-family="Roboto"><tspan y="-2858.998" x="1842.3638 1922.0835 2001.8032 2048.1885 2126.3477 2161.5264 2200.6773 2235.856 2315.5758 2388.7706 2435.1553 2470.334 2563.3878 2597.8572 2666.513 2703.8199 2738.9986 2774.1773 2822.69 2902.41 2982.1297 3061.8494 3141.569">12th - 1st Div.  (2021)</tspan></text>
<text fill="#ffffff" xml:space="preserve" transform="matrix(1 0 -0 1 0 5669.29)" font-size="141.85009" font-family="Roboto"><tspan y="-2673.08" x="1842.3638 1930.7363 1968.043 2060.5294 2097.8363 2133.015 2212.7347 2259.1199 2337.279 2372.4578 2456.5755 2531.7559 2656.0167 2731.1976 2804.3917 2850.7769 2925.9573 2973.9029">B.A. 4th Semester </tspan></text>
<text fill="#ffffff" xml:space="preserve" transform="matrix(1 0 -0 1 0 5669.29)" font-size="141.85009" font-family="Roboto"><tspan y="-2487.162" x="1842.3638 1890.8765 1987.4763 2062.6573 2143.5118 2223.0897 2271.035 2348.2015 2427.7794 2505.9385 2573.0338 2600.8365 2680.5562 2760.276 2839.9959 2919.7156">(Geography,2021-</tspan></text>
<text fill="#ffffff" xml:space="preserve" transform="matrix(1 0 -0 1 0 5669.29)" font-size="141.85009" font-family="Roboto"><tspan y="-2301.2442" x="1842.3638 1922.0835 2001.8034 2081.5235 2161.2432">2024)</tspan></text>
</g>
</svg>
